G04 ================== begin FILE IDENTIFICATION RECORD ==================*
G04 Layout Name:  E:/PROIECT1/allegro/P1_SERS_PREFAC RALUCA_431C.brd*
G04 Film Name:    BOTTOM*
G04 File Format:  Gerber RS274X*
G04 File Origin:  Cadence Allegro 17.2-S025*
G04 Origin Date:  Sat Dec 09 14:05:26 2023*
G04 *
G04 Layer:  ETCH/BOTTOM*
G04 Layer:  PIN/BOTTOM*
G04 Layer:  VIA CLASS/BOTTOM*
G04 *
G04 Offset:    (0.0000 0.0000)*
G04 Mirror:    No*
G04 Mode:      Positive*
G04 Rotation:  0*
G04 FullContactRelief:  No*
G04 UndefLineWidth:     0.1500*
G04 ================== end FILE IDENTIFICATION RECORD ====================*
%FSLAX25Y25*MOMM*%
%IR0*IPPOS*OFA0.00000B0.00000*MIA0B0*SFA1.00000B1.00000*%
%ADD10C,.7*%
%ADD11C,.5*%
G75*
%LPD*%
G75*
G54D10*
X320000Y2300000D03*
X350000Y3490000D03*
X845860Y630000D03*
X1110000Y1520000D03*
X980000Y2860000D03*
X630000D03*
X1590000Y1210000D03*
X1790000Y660000D03*
X1720000Y1520000D03*
X1740000Y1680000D03*
X1430000D03*
X1888280Y2320000D03*
X1780000Y2490000D03*
X1335740Y2900000D03*
X1790000Y3640000D03*
X2550000Y1090000D03*
X2230000Y940000D03*
X2166000Y1060000D03*
X2390000Y1640000D03*
X2280000Y3470000D03*
X2576980Y2790000D03*
X2058000Y3460000D03*
X3490000Y750000D03*
X2960000Y800000D03*
X3490000Y1870000D03*
X3690000Y2400000D03*
G54D11*
G01X320000Y2300000D02*
X420000D01*
X980000Y2860000D01*
G01X350000Y3490000D02*
X630000Y3210000D01*
Y2860000D01*
G01X845860Y630000D02*
X1010000D01*
X1590000Y1210000D01*
G01X1110000Y1520000D02*
X1720000D01*
G01X1790000Y660000D02*
X3400000D01*
X3490000Y750000D01*
G01X1740000Y1680000D02*
X1430000D01*
G01X1888280Y2320000D02*
X1815580D01*
X1335740Y2799840D01*
Y2900000D01*
G01X1790000Y2500000D02*
X1790010D01*
G01X1790000D02*
X1780000Y2490000D01*
G01X1790000Y3640000D02*
Y2500000D01*
G01X2550000Y1090000D02*
X3690000Y2230000D01*
Y2400000D01*
G01X3490000Y1870000D02*
X2560000Y940000D01*
X2230000D01*
G01X2390000Y1640000D02*
X2166000Y1416000D01*
Y1060000D01*
G01X2058000Y3460000D02*
Y977640D01*
X2235640Y800000D01*
X2960000D01*
G01X2280000Y3470000D02*
X2576980Y3173020D01*
Y2790000D01*
M02*
