M48
METRIC,TZ
T01C.4
;LEADER: 12 
;HEADER: 
;CODE  : ASCII 
;FILE  : P1_SERS_PREFAC RALUCA_431C-1-2.drl for  ... layers TOP and BOTTOM
;DESIGN: P1_SERS_PREFAC RALUCA_431C.brd
;T01 Holesize 1. = 0.400000 Tolerance = +0.000000/-0.000000 PLATED MM Quantity = 26
%
G90
T01
X1790000Y3640000
X1780000Y2490000
X2058000Y3460000
X2960000Y800000
X630000Y2860000
X350000Y3490000
X1790000Y660000
X3490000Y750000
X2166000Y1060000
X2390000Y1640000
X1590000Y1210000
X845860Y630000
X1430000Y1680000
X1740000Y1680000
X2230000Y940000
X3490000Y1870000
X2576980Y2790000
X2280000Y3470000
X2550000Y1090000
X3690000Y2400000
X1110000Y1520000
X1720000Y1520000
X1335740Y2900000
X1888280Y2320000
X980000Y2860000
X320000Y2300000
M30
