G04 ================== begin FILE IDENTIFICATION RECORD ==================*
G04 Layout Name:  E:/PROIECT1/allegro/P1_SERS_PREFAC RALUCA_431C.brd*
G04 Film Name:    FAB*
G04 File Format:  Gerber RS274X*
G04 File Origin:  Cadence Allegro 17.2-S025*
G04 Origin Date:  Sat Dec 09 14:05:26 2023*
G04 *
G04 Layer:  MANUFACTURING/NCDRILL_LEGEND*
G04 Layer:  MANUFACTURING/NCDRILL_FIGURE*
G04 Layer:  MANUFACTURING/XSECTION_CHART*
G04 Layer:  MANUFACTURING/NCLEGEND-1-2*
G04 Layer:  BOARD GEOMETRY/DIMENSION*
G04 Layer:  BOARD GEOMETRY/DESIGN_OUTLINE*
G04 *
G04 Offset:    (0.0000 0.0000)*
G04 Mirror:    No*
G04 Mode:      Positive*
G04 Rotation:  0*
G04 FullContactRelief:  No*
G04 UndefLineWidth:     0.1500*
G04 ================== end FILE IDENTIFICATION RECORD ====================*
%FSLAX25Y25*MOMM*%
%IR0*IPPOS*OFA0.00000B0.00000*MIA0B0*SFA1.00000B1.00000*%
%AMMACRO10*
1,1,.15,.5,0.0*
20,1,.15,.5,0.0,.492404,-.086824,0.0*
1,1,.15,.492404,-.086824*
20,1,.15,.492404,-.086824,.469846,-.17101,0.0*
1,1,.15,.469846,-.17101*
20,1,.15,.469846,-.17101,.433013,-.25,0.0*
1,1,.15,.433013,-.25*
20,1,.15,.433013,-.25,.383022,-.321394,0.0*
1,1,.15,.383022,-.321394*
20,1,.15,.383022,-.321394,.321394,-.383022,0.0*
1,1,.15,.321394,-.383022*
20,1,.15,.321394,-.383022,.25,-.433013,0.0*
1,1,.15,.25,-.433013*
20,1,.15,.25,-.433013,.17101,-.469846,0.0*
1,1,.15,.17101,-.469846*
20,1,.15,.17101,-.469846,.086824,-.492404,0.0*
1,1,.15,.086824,-.492404*
20,1,.15,.086824,-.492404,0.0,-.5,0.0*
1,1,.15,0.0,-.5*
20,1,.15,0.0,-.5,-.086824,-.492404,0.0*
1,1,.15,-.086824,-.492404*
20,1,.15,-.086824,-.492404,-.17101,-.469846,0.0*
1,1,.15,-.17101,-.469846*
20,1,.15,-.17101,-.469846,-.25,-.433013,0.0*
1,1,.15,-.25,-.433013*
20,1,.15,-.25,-.433013,-.321394,-.383022,0.0*
1,1,.15,-.321394,-.383022*
20,1,.15,-.321394,-.383022,-.383022,-.321394,0.0*
1,1,.15,-.383022,-.321394*
20,1,.15,-.383022,-.321394,-.433013,-.25,0.0*
1,1,.15,-.433013,-.25*
20,1,.15,-.433013,-.25,-.469846,-.17101,0.0*
1,1,.15,-.469846,-.17101*
20,1,.15,-.469846,-.17101,-.492404,-.086824,0.0*
1,1,.15,-.492404,-.086824*
20,1,.15,-.492404,-.086824,-.5,0.0,0.0*
1,1,.15,-.5,0.0*
20,1,.15,-.5,0.0,-.492404,.086824,0.0*
1,1,.15,-.492404,.086824*
20,1,.15,-.492404,.086824,-.469846,.17101,0.0*
1,1,.15,-.469846,.17101*
20,1,.15,-.469846,.17101,-.433013,.25,0.0*
1,1,.15,-.433013,.25*
20,1,.15,-.433013,.25,-.383022,.321394,0.0*
1,1,.15,-.383022,.321394*
20,1,.15,-.383022,.321394,-.321394,.383022,0.0*
1,1,.15,-.321394,.383022*
20,1,.15,-.321394,.383022,-.25,.433013,0.0*
1,1,.15,-.25,.433013*
20,1,.15,-.25,.433013,-.17101,.469846,0.0*
1,1,.15,-.17101,.469846*
20,1,.15,-.17101,.469846,-.086824,.492404,0.0*
1,1,.15,-.086824,.492404*
20,1,.15,-.086824,.492404,0.0,.5,0.0*
1,1,.15,0.0,.5*
20,1,.15,0.0,.5,.086824,.492404,0.0*
1,1,.15,.086824,.492404*
20,1,.15,.086824,.492404,.17101,.469846,0.0*
1,1,.15,.17101,.469846*
20,1,.15,.17101,.469846,.25,.433013,0.0*
1,1,.15,.25,.433013*
20,1,.15,.25,.433013,.321394,.383022,0.0*
1,1,.15,.321394,.383022*
20,1,.15,.321394,.383022,.383022,.321394,0.0*
1,1,.15,.383022,.321394*
20,1,.15,.383022,.321394,.433013,.25,0.0*
1,1,.15,.433013,.25*
20,1,.15,.433013,.25,.469846,.17101,0.0*
1,1,.15,.469846,.17101*
20,1,.15,.469846,.17101,.492404,.086824,0.0*
1,1,.15,.492404,.086824*
20,1,.15,.492404,.086824,.5,0.0,0.0*
1,1,.15,.5,0.0*
1,1,.15,.25,0.0*
20,1,.15,.25,0.0,-.25,0.0,0.0*
1,1,.15,-.25,0.0*
1,1,.15,0.0,.25*
20,1,.15,0.0,.25,0.0,-.25,0.0*
1,1,.15,0.0,-.25*
%
%ADD10MACRO10*%
%ADD11C,.15*%
G75*
%LPD*%
G75*
G36*
G01X7248000Y5370840D02*
Y4785630D01*
X7311500D01*
Y884190D01*
X7248000D01*
Y298980D01*
X7629000D01*
Y884190D01*
X7565500D01*
Y4785630D01*
X7629000D01*
Y5370840D01*
X7248000D01*
G37*
G36*
G01X6740000Y298980D02*
Y884190D01*
X8264000D01*
Y298980D01*
X6740000D01*
G37*
G36*
G01Y4785630D02*
Y5370840D01*
X8264000D01*
Y4785630D01*
X6740000D01*
G37*
G54D10*
X-898270Y6572500D03*
X320000Y2300000D03*
X350000Y3490000D03*
X845860Y630000D03*
X1110000Y1520000D03*
X980000Y2860000D03*
X630000D03*
X1590000Y1210000D03*
X1790000Y660000D03*
X1720000Y1520000D03*
X1740000Y1680000D03*
X1430000D03*
X1888280Y2320000D03*
X1780000Y2490000D03*
X1335740Y2900000D03*
X1790000Y3640000D03*
X2550000Y1090000D03*
X2230000Y940000D03*
X2166000Y1060000D03*
X2390000Y1640000D03*
X2280000Y3470000D03*
X2576980Y2790000D03*
X2058000Y3460000D03*
X3490000Y750000D03*
X2960000Y800000D03*
X3490000Y1870000D03*
X3690000Y2400000D03*
G54D11*
G01X6796830Y-1840D02*
Y78160D01*
X6810170D01*
X6815500Y74160D01*
X6819500Y68830D01*
X6822830Y60830D01*
X6825500Y51490D01*
X6826170Y38160D01*
X6825500Y24830D01*
X6822830Y15490D01*
X6819500Y7490D01*
X6815500Y2160D01*
X6810170Y-1840D01*
X6796830D01*
G01X6880070D02*
X6853410D01*
Y78160D01*
X6880070D01*
G01X6869410Y39490D02*
X6853410D01*
G01X6907980Y8820D02*
X6913310Y2160D01*
X6919310Y-1840D01*
X6924650D01*
X6929980Y2160D01*
X6933980Y8820D01*
X6935980Y18160D01*
X6934650Y27490D01*
X6931310Y35490D01*
X6925310Y40830D01*
X6917310Y43490D01*
X6912650Y48830D01*
X6910650Y58160D01*
X6911980Y67490D01*
X6915310Y74160D01*
X6919980Y78160D01*
X6924650D01*
X6929310Y75490D01*
X6933310Y68830D01*
G01X6969220Y78160D02*
X6985220D01*
G01X6977220D02*
Y-1840D01*
G01X6969220D02*
X6985220D01*
G01X7036460Y38160D02*
X7049790D01*
Y14160D01*
X7045790Y6160D01*
X7041130Y830D01*
X7034460Y-1840D01*
X7027790Y830D01*
X7023130Y6160D01*
X7019130Y14160D01*
X7016460Y23490D01*
X7015130Y34160D01*
Y43490D01*
X7016460Y51490D01*
X7019130Y60830D01*
X7023130Y68830D01*
X7027130Y74160D01*
X7032460Y78160D01*
X7037130D01*
X7042460Y75490D01*
X7046460Y70160D01*
G01X7072370Y-1840D02*
Y78160D01*
X7103030Y-1840D01*
Y78160D01*
G01X7212850Y71490D02*
X7208850Y75490D01*
X7204180Y78160D01*
X7198850D01*
X7192850Y74160D01*
X7188180Y67490D01*
X7184850Y59490D01*
X7182180Y46160D01*
X7181510Y34160D01*
X7182850Y22160D01*
X7184850Y14160D01*
X7188850Y6160D01*
X7193510Y830D01*
X7198180Y-1840D01*
X7202850D01*
X7207510Y830D01*
X7211510Y4830D01*
X7214850Y10160D01*
G01X7240090Y-1840D02*
Y78160D01*
X7256750D01*
X7262090Y74160D01*
X7265420Y68830D01*
X7266750Y58160D01*
X7265420Y47490D01*
X7261420Y40830D01*
X7256750Y36830D01*
X7240090D01*
G01X7256750D02*
X7266750Y-1840D01*
G01X7308660D02*
X7303330Y-510D01*
X7298660Y4830D01*
X7294660Y12830D01*
X7291990Y22160D01*
X7290660Y32830D01*
Y43490D01*
X7291990Y54160D01*
X7294660Y63490D01*
X7298660Y71490D01*
X7303330Y76830D01*
X7308660Y78160D01*
X7313990Y76830D01*
X7318660Y71490D01*
X7322660Y63490D01*
X7325330Y54160D01*
X7326660Y43490D01*
Y32830D01*
X7325330Y22160D01*
X7322660Y12830D01*
X7318660Y4830D01*
X7313990Y-510D01*
X7308660Y-1840D01*
G01X7349900Y8820D02*
X7355230Y2160D01*
X7361230Y-1840D01*
X7366570D01*
X7371900Y2160D01*
X7375900Y8820D01*
X7377900Y18160D01*
X7376570Y27490D01*
X7373230Y35490D01*
X7367230Y40830D01*
X7359230Y43490D01*
X7354570Y48830D01*
X7352570Y58160D01*
X7353900Y67490D01*
X7357230Y74160D01*
X7361900Y78160D01*
X7366570D01*
X7371230Y75490D01*
X7375230Y68830D01*
G01X7405140Y8820D02*
X7410470Y2160D01*
X7416470Y-1840D01*
X7421810D01*
X7427140Y2160D01*
X7431140Y8820D01*
X7433140Y18160D01*
X7431810Y27490D01*
X7428470Y35490D01*
X7422470Y40830D01*
X7414470Y43490D01*
X7409810Y48830D01*
X7407810Y58160D01*
X7409140Y67490D01*
X7412470Y74160D01*
X7417140Y78160D01*
X7421810D01*
X7426470Y75490D01*
X7430470Y68830D01*
G01X7515620Y8820D02*
X7520950Y2160D01*
X7526950Y-1840D01*
X7532290D01*
X7537620Y2160D01*
X7541620Y8820D01*
X7543620Y18160D01*
X7542290Y27490D01*
X7538950Y35490D01*
X7532950Y40830D01*
X7524950Y43490D01*
X7520290Y48830D01*
X7518290Y58160D01*
X7519620Y67490D01*
X7522950Y74160D01*
X7527620Y78160D01*
X7532290D01*
X7536950Y75490D01*
X7540950Y68830D01*
G01X7598190Y-1840D02*
X7571530D01*
Y78160D01*
X7598190D01*
G01X7587530Y39490D02*
X7571530D01*
G01X7654770Y71490D02*
X7650770Y75490D01*
X7646100Y78160D01*
X7640770D01*
X7634770Y74160D01*
X7630100Y67490D01*
X7626770Y59490D01*
X7624100Y46160D01*
X7623430Y34160D01*
X7624770Y22160D01*
X7626770Y14160D01*
X7630770Y6160D01*
X7635430Y830D01*
X7640100Y-1840D01*
X7644770D01*
X7649430Y830D01*
X7653430Y4830D01*
X7656770Y10160D01*
G01X7695340Y78160D02*
Y-1840D01*
G01X7680010Y78160D02*
X7710670D01*
G01X7742580D02*
X7758580D01*
G01X7750580D02*
Y-1840D01*
G01X7742580D02*
X7758580D01*
G01X7805820D02*
X7800490Y-510D01*
X7795820Y4830D01*
X7791820Y12830D01*
X7789150Y22160D01*
X7787820Y32830D01*
Y43490D01*
X7789150Y54160D01*
X7791820Y63490D01*
X7795820Y71490D01*
X7800490Y76830D01*
X7805820Y78160D01*
X7811150Y76830D01*
X7815820Y71490D01*
X7819820Y63490D01*
X7822490Y54160D01*
X7823820Y43490D01*
Y32830D01*
X7822490Y22160D01*
X7819820Y12830D01*
X7815820Y4830D01*
X7811150Y-510D01*
X7805820Y-1840D01*
G01X7845730D02*
Y78160D01*
X7876390Y-1840D01*
Y78160D01*
G01X7986210Y71490D02*
X7982210Y75490D01*
X7977540Y78160D01*
X7972210D01*
X7966210Y74160D01*
X7961540Y67490D01*
X7958210Y59490D01*
X7955540Y46160D01*
X7954870Y34160D01*
X7956210Y22160D01*
X7958210Y14160D01*
X7962210Y6160D01*
X7966870Y830D01*
X7971540Y-1840D01*
X7976210D01*
X7980870Y830D01*
X7984870Y4830D01*
X7988210Y10160D01*
G01X8012780Y-1840D02*
Y78160D01*
G01X8040780D02*
Y-1840D01*
G01Y38160D02*
X8012780D01*
G01X8065350Y-1840D02*
X8082020Y78160D01*
X8098690Y-1840D01*
G01X8092690Y26160D02*
X8071350D01*
G01X8123930Y-1840D02*
Y78160D01*
X8140590D01*
X8145930Y74160D01*
X8149260Y68830D01*
X8150590Y58160D01*
X8149260Y47490D01*
X8145260Y40830D01*
X8140590Y36830D01*
X8123930D01*
G01X8140590D02*
X8150590Y-1840D01*
G01X8192500Y78160D02*
Y-1840D01*
G01X8177170Y78160D02*
X8207830D01*
G01X6763880Y-28510D02*
X6803880D01*
G01X6819120D02*
X6859120D01*
G01X6874360D02*
X6914360D01*
G01X6929600D02*
X6969600D01*
G01X6984840D02*
X7024840D01*
G01X7040080D02*
X7080080D01*
G01X7095320D02*
X7135320D01*
G01X7150560D02*
X7190560D01*
G01X7205800D02*
X7245800D01*
G01X7261040D02*
X7301040D01*
G01X7316280D02*
X7356280D01*
G01X7371520D02*
X7411520D01*
G01X7426760D02*
X7466760D01*
G01X7482000D02*
X7522000D01*
G01X7537240D02*
X7577240D01*
G01X7592480D02*
X7632480D01*
G01X7647720D02*
X7687720D01*
G01X7702960D02*
X7742960D01*
G01X7758200D02*
X7798200D01*
G01X7813440D02*
X7853440D01*
G01X7868680D02*
X7908680D01*
G01X7923920D02*
X7963920D01*
G01X7979160D02*
X8019160D01*
G01X8034400D02*
X8074400D01*
G01X8089640D02*
X8129640D01*
G01X8144880D02*
X8184880D01*
G01X8200120D02*
X8240120D01*
G01X6811500Y-65840D02*
Y-145840D01*
G01X6796170Y-65840D02*
X6826830D01*
G01X6866740Y-145840D02*
X6861410Y-144510D01*
X6856740Y-139170D01*
X6852740Y-131170D01*
X6850070Y-121840D01*
X6848740Y-111170D01*
Y-100510D01*
X6850070Y-89840D01*
X6852740Y-80510D01*
X6856740Y-72510D01*
X6861410Y-67170D01*
X6866740Y-65840D01*
X6872070Y-67170D01*
X6876740Y-72510D01*
X6880740Y-80510D01*
X6883410Y-89840D01*
X6884740Y-100510D01*
Y-111170D01*
X6883410Y-121840D01*
X6880740Y-131170D01*
X6876740Y-139170D01*
X6872070Y-144510D01*
X6866740Y-145840D01*
G01X6921980Y-65840D02*
Y-145840D01*
G01X6906650Y-65840D02*
X6937310D01*
G01X6960550Y-145840D02*
X6977220Y-65840D01*
X6993890Y-145840D01*
G01X6987890Y-117840D02*
X6966550D01*
G01X7019130Y-65840D02*
Y-145840D01*
X7045790D01*
G01X7142940Y-65840D02*
Y-145840D01*
G01X7127610Y-65840D02*
X7158270D01*
G01X7184180Y-145840D02*
Y-65840D01*
G01X7212180D02*
Y-145840D01*
G01Y-105840D02*
X7184180D01*
G01X7245420Y-65840D02*
X7261420D01*
G01X7253420D02*
Y-145840D01*
G01X7245420D02*
X7261420D01*
G01X7323330Y-72510D02*
X7319330Y-68510D01*
X7314660Y-65840D01*
X7309330D01*
X7303330Y-69840D01*
X7298660Y-76510D01*
X7295330Y-84510D01*
X7292660Y-97840D01*
X7291990Y-109840D01*
X7293330Y-121840D01*
X7295330Y-129840D01*
X7299330Y-137840D01*
X7303990Y-143170D01*
X7308660Y-145840D01*
X7313330D01*
X7317990Y-143170D01*
X7321990Y-139170D01*
X7325330Y-133840D01*
G01X7349230Y-145840D02*
Y-65840D01*
G01X7374570D02*
X7349230Y-115180D01*
G01X7378570Y-145840D02*
X7360570Y-92510D01*
G01X7403810Y-145840D02*
Y-65840D01*
X7434470Y-145840D01*
Y-65840D01*
G01X7487710Y-145840D02*
X7461050D01*
Y-65840D01*
X7487710D01*
G01X7477050Y-104510D02*
X7461050D01*
G01X7515620Y-135180D02*
X7520950Y-141840D01*
X7526950Y-145840D01*
X7532290D01*
X7537620Y-141840D01*
X7541620Y-135180D01*
X7543620Y-125840D01*
X7542290Y-116510D01*
X7538950Y-108510D01*
X7532950Y-103170D01*
X7524950Y-100510D01*
X7520290Y-95170D01*
X7518290Y-85840D01*
X7519620Y-76510D01*
X7522950Y-69840D01*
X7527620Y-65840D01*
X7532290D01*
X7536950Y-68510D01*
X7540950Y-75170D01*
G01X7570860Y-135180D02*
X7576190Y-141840D01*
X7582190Y-145840D01*
X7587530D01*
X7592860Y-141840D01*
X7596860Y-135180D01*
X7598860Y-125840D01*
X7597530Y-116510D01*
X7594190Y-108510D01*
X7588190Y-103170D01*
X7580190Y-100510D01*
X7575530Y-95170D01*
X7573530Y-85840D01*
X7574860Y-76510D01*
X7578190Y-69840D01*
X7582860Y-65840D01*
X7587530D01*
X7592190Y-68510D01*
X7596190Y-75170D01*
G01X7695340Y-65840D02*
X7690010Y-68510D01*
X7686010Y-75170D01*
X7683340Y-83170D01*
X7681340Y-93840D01*
X7680670Y-105840D01*
X7681340Y-117840D01*
X7683340Y-128510D01*
X7686010Y-136510D01*
X7690010Y-143170D01*
X7695340Y-145840D01*
X7700670Y-143170D01*
X7704670Y-136510D01*
X7707340Y-128510D01*
X7709340Y-117840D01*
X7710010Y-105840D01*
X7709340Y-93840D01*
X7707340Y-83170D01*
X7704670Y-75170D01*
X7700670Y-68510D01*
X7695340Y-65840D01*
G01X7750580Y-148510D02*
X7749250Y-147170D01*
Y-144510D01*
X7750580Y-143170D01*
X7751910Y-144510D01*
Y-147170D01*
X7750580Y-148510D01*
G01X7793150Y-79170D02*
X7797150Y-71170D01*
X7801820Y-67170D01*
X7807150Y-65840D01*
X7813820Y-68510D01*
X7818490Y-75170D01*
X7819820Y-83170D01*
X7819150Y-91180D01*
X7816490Y-97840D01*
X7803150Y-111170D01*
X7797150Y-120510D01*
X7793150Y-133840D01*
X7791820Y-145840D01*
X7819820D01*
G01X7848390Y-112510D02*
X7853060Y-103170D01*
X7857060Y-97840D01*
X7862390Y-95170D01*
X7867060Y-97840D01*
X7870390Y-103170D01*
X7873060Y-111170D01*
X7873730Y-120510D01*
X7873060Y-128510D01*
X7870390Y-136510D01*
X7866390Y-143170D01*
X7861730Y-145840D01*
X7856390Y-143170D01*
X7851730Y-135180D01*
X7849060Y-123170D01*
X7848390Y-109840D01*
X7849730Y-92510D01*
X7851730Y-83170D01*
X7855060Y-73840D01*
X7859730Y-67170D01*
X7864390Y-65840D01*
X7869060Y-68510D01*
X7872390Y-75170D01*
G01X7924300Y-145840D02*
Y-65840D01*
X7899630Y-123170D01*
X7932970D01*
G01X7971540Y-145840D02*
Y-65840D01*
X7963540Y-81840D01*
G01Y-145840D02*
X7979540D01*
G01X8014110Y-112510D02*
X8018780Y-103170D01*
X8022780Y-97840D01*
X8028110Y-95170D01*
X8032780Y-97840D01*
X8036110Y-103170D01*
X8038780Y-111170D01*
X8039450Y-120510D01*
X8038780Y-128510D01*
X8036110Y-136510D01*
X8032110Y-143170D01*
X8027450Y-145840D01*
X8022110Y-143170D01*
X8017450Y-135180D01*
X8014780Y-123170D01*
X8014110Y-109840D01*
X8015450Y-92510D01*
X8017450Y-83170D01*
X8020780Y-73840D01*
X8025450Y-67170D01*
X8030110Y-65840D01*
X8034780Y-68510D01*
X8038110Y-75170D01*
G01X8119930Y-145840D02*
Y-65840D01*
X8137260Y-132510D01*
X8154590Y-65840D01*
Y-145840D01*
G01X8175170D02*
Y-65840D01*
X8192500Y-132510D01*
X8209830Y-65840D01*
Y-145840D01*
G01X7438500Y5470840D02*
X7358500D01*
X7374500Y5462840D01*
G01X7438500D02*
Y5478840D01*
G01X7411830Y5517410D02*
Y5534750D01*
G01X7371830Y5568650D02*
X7363830Y5572650D01*
X7359830Y5577320D01*
X7358500Y5582650D01*
X7361170Y5589320D01*
X7367830Y5593990D01*
X7375830Y5595320D01*
X7383840Y5594650D01*
X7390500Y5591990D01*
X7403830Y5578650D01*
X7413170Y5572650D01*
X7426500Y5568650D01*
X7438500Y5567320D01*
Y5595320D01*
G01X8435050Y189650D02*
X8464390Y248320D01*
G01X8449720Y258990D02*
Y178990D01*
G01X8464390Y189650D02*
X8435050Y248320D01*
G01X8429720Y218990D02*
X8469720D01*
G01X8601440Y202980D02*
X8606770Y196320D01*
X8612770Y192320D01*
X8618110D01*
X8623440Y196320D01*
X8627440Y202980D01*
X8629440Y212320D01*
X8628110Y221650D01*
X8624770Y229650D01*
X8618770Y234990D01*
X8610770Y237650D01*
X8606110Y242990D01*
X8604110Y252320D01*
X8605440Y261650D01*
X8608770Y268320D01*
X8613440Y272320D01*
X8618110D01*
X8622770Y269650D01*
X8626770Y262990D01*
G01X8656010Y272320D02*
Y214990D01*
X8658680Y202980D01*
X8664010Y194990D01*
X8670680Y192320D01*
X8677350Y194990D01*
X8682680Y202980D01*
X8685350Y214990D01*
Y272320D01*
G01X8712590Y192320D02*
Y272320D01*
X8729250D01*
X8734590Y268320D01*
X8737920Y262990D01*
X8739250Y252320D01*
X8737920Y241650D01*
X8733920Y234990D01*
X8729250Y230990D01*
X8712590D01*
G01X8729250D02*
X8739250Y192320D01*
G01X8768490D02*
Y272320D01*
X8793830D01*
G01X8784490Y233650D02*
X8768490D01*
G01X8819730Y192320D02*
X8836400Y272320D01*
X8853070Y192320D01*
G01X8847070Y220320D02*
X8825730D01*
G01X8906310Y265650D02*
X8902310Y269650D01*
X8897640Y272320D01*
X8892310D01*
X8886310Y268320D01*
X8881640Y261650D01*
X8878310Y253650D01*
X8875640Y240320D01*
X8874970Y228320D01*
X8876310Y216320D01*
X8878310Y208320D01*
X8882310Y200320D01*
X8886970Y194990D01*
X8891640Y192320D01*
X8896310D01*
X8900970Y194990D01*
X8904970Y198990D01*
X8908310Y204320D01*
G01X8960210Y192320D02*
X8933550D01*
Y272320D01*
X8960210D01*
G01X8949550Y233650D02*
X8933550D01*
G01X8325910Y671590D02*
Y591590D01*
X8352570D01*
G01X8381810Y658260D02*
X8385810Y666260D01*
X8390480Y670260D01*
X8395810Y671590D01*
X8402480Y668920D01*
X8407150Y662260D01*
X8408480Y654260D01*
X8407810Y646250D01*
X8405150Y639590D01*
X8391810Y626260D01*
X8385810Y616920D01*
X8381810Y603590D01*
X8380480Y591590D01*
X8408480D01*
G01X8510290Y634260D02*
X8512960Y638260D01*
X8514960Y644920D01*
X8516290Y654260D01*
X8514960Y662260D01*
X8512290Y667590D01*
X8507630Y671590D01*
X8489630D01*
Y591590D01*
X8511630D01*
X8516290Y596920D01*
X8518960Y604920D01*
X8520290Y614260D01*
X8518960Y623590D01*
X8514960Y631590D01*
X8510290Y634260D01*
X8489630D01*
G01X8560200Y591590D02*
X8554870Y592920D01*
X8550200Y598260D01*
X8546200Y606260D01*
X8543530Y615590D01*
X8542200Y626260D01*
Y636920D01*
X8543530Y647590D01*
X8546200Y656920D01*
X8550200Y664920D01*
X8554870Y670260D01*
X8560200Y671590D01*
X8565530Y670260D01*
X8570200Y664920D01*
X8574200Y656920D01*
X8576870Y647590D01*
X8578200Y636920D01*
Y626260D01*
X8576870Y615590D01*
X8574200Y606260D01*
X8570200Y598260D01*
X8565530Y592920D01*
X8560200Y591590D01*
G01X8615440Y671590D02*
Y591590D01*
G01X8600110Y671590D02*
X8630770D01*
G01X8670680D02*
Y591590D01*
G01X8655350Y671590D02*
X8686010D01*
G01X8725920Y591590D02*
X8720590Y592920D01*
X8715920Y598260D01*
X8711920Y606260D01*
X8709250Y615590D01*
X8707920Y626260D01*
Y636920D01*
X8709250Y647590D01*
X8711920Y656920D01*
X8715920Y664920D01*
X8720590Y670260D01*
X8725920Y671590D01*
X8731250Y670260D01*
X8735920Y664920D01*
X8739920Y656920D01*
X8742590Y647590D01*
X8743920Y636920D01*
Y626260D01*
X8742590Y615590D01*
X8739920Y606260D01*
X8735920Y598260D01*
X8731250Y592920D01*
X8725920Y591590D01*
G01X8763830D02*
Y671590D01*
X8781160Y604920D01*
X8798490Y671590D01*
Y591590D01*
G01X8906310Y664920D02*
X8902310Y668920D01*
X8897640Y671590D01*
X8892310D01*
X8886310Y667590D01*
X8881640Y660920D01*
X8878310Y652920D01*
X8875640Y639590D01*
X8874970Y627590D01*
X8876310Y615590D01*
X8878310Y607590D01*
X8882310Y599590D01*
X8886970Y594260D01*
X8891640Y591590D01*
X8896310D01*
X8900970Y594260D01*
X8904970Y598260D01*
X8908310Y603590D01*
G01X8946880Y591590D02*
X8941550Y592920D01*
X8936880Y598260D01*
X8932880Y606260D01*
X8930210Y615590D01*
X8928880Y626260D01*
Y636920D01*
X8930210Y647590D01*
X8932880Y656920D01*
X8936880Y664920D01*
X8941550Y670260D01*
X8946880Y671590D01*
X8952210Y670260D01*
X8956880Y664920D01*
X8960880Y656920D01*
X8963550Y647590D01*
X8964880Y636920D01*
Y626260D01*
X8963550Y615590D01*
X8960880Y606260D01*
X8956880Y598260D01*
X8952210Y592920D01*
X8946880Y591590D01*
G01X8986790D02*
Y671590D01*
X9017450Y591590D01*
Y671590D01*
G01X9042690Y591590D02*
Y671590D01*
X9056030D01*
X9061360Y667590D01*
X9065360Y662260D01*
X9068690Y654260D01*
X9071360Y644920D01*
X9072030Y631590D01*
X9071360Y618260D01*
X9068690Y608920D01*
X9065360Y600920D01*
X9061360Y595590D01*
X9056030Y591590D01*
X9042690D01*
G01X9097930Y671590D02*
Y614260D01*
X9100600Y602250D01*
X9105930Y594260D01*
X9112600Y591590D01*
X9119270Y594260D01*
X9124600Y602250D01*
X9127270Y614260D01*
Y671590D01*
G01X9182510Y664920D02*
X9178510Y668920D01*
X9173840Y671590D01*
X9168510D01*
X9162510Y667590D01*
X9157840Y660920D01*
X9154510Y652920D01*
X9151840Y639590D01*
X9151170Y627590D01*
X9152510Y615590D01*
X9154510Y607590D01*
X9158510Y599590D01*
X9163170Y594260D01*
X9167840Y591590D01*
X9172510D01*
X9177170Y594260D01*
X9181170Y598260D01*
X9184510Y603590D01*
G01X9223080Y671590D02*
Y591590D01*
G01X9207750Y671590D02*
X9238410D01*
G01X9278320Y591590D02*
X9272990Y592920D01*
X9268320Y598260D01*
X9264320Y606260D01*
X9261650Y615590D01*
X9260320Y626260D01*
Y636920D01*
X9261650Y647590D01*
X9264320Y656920D01*
X9268320Y664920D01*
X9272990Y670260D01*
X9278320Y671590D01*
X9283650Y670260D01*
X9288320Y664920D01*
X9292320Y656920D01*
X9294990Y647590D01*
X9296320Y636920D01*
Y626260D01*
X9294990Y615590D01*
X9292320Y606260D01*
X9288320Y598260D01*
X9283650Y592920D01*
X9278320Y591590D01*
G01X9320230D02*
Y671590D01*
X9336890D01*
X9342230Y667590D01*
X9345560Y662260D01*
X9346890Y651590D01*
X9345560Y640920D01*
X9341560Y634260D01*
X9336890Y630260D01*
X9320230D01*
G01X9336890D02*
X9346890Y591590D01*
G01X8435050Y2832240D02*
X8464390Y2890910D01*
G01X8449720Y2901580D02*
Y2821580D01*
G01X8464390Y2832240D02*
X8435050Y2890910D01*
G01X8429720Y2861580D02*
X8469720D01*
G01X8600770Y2834910D02*
Y2914910D01*
X8614110D01*
X8619440Y2910910D01*
X8623440Y2905580D01*
X8626770Y2897580D01*
X8629440Y2888240D01*
X8630110Y2874910D01*
X8629440Y2861580D01*
X8626770Y2852240D01*
X8623440Y2844240D01*
X8619440Y2838910D01*
X8614110Y2834910D01*
X8600770D01*
G01X8662680Y2914910D02*
X8678680D01*
G01X8670680D02*
Y2834910D01*
G01X8662680D02*
X8678680D01*
G01X8739250D02*
X8712590D01*
Y2914910D01*
X8739250D01*
G01X8728590Y2876240D02*
X8712590D01*
G01X8767830Y2914910D02*
Y2834910D01*
X8794490D01*
G01X8849730D02*
X8823070D01*
Y2914910D01*
X8849730D01*
G01X8839070Y2876240D02*
X8823070D01*
G01X8906310Y2908240D02*
X8902310Y2912240D01*
X8897640Y2914910D01*
X8892310D01*
X8886310Y2910910D01*
X8881640Y2904240D01*
X8878310Y2896240D01*
X8875640Y2882910D01*
X8874970Y2870910D01*
X8876310Y2858910D01*
X8878310Y2850910D01*
X8882310Y2842910D01*
X8886970Y2837580D01*
X8891640Y2834910D01*
X8896310D01*
X8900970Y2837580D01*
X8904970Y2841580D01*
X8908310Y2846910D01*
G01X8946880Y2914910D02*
Y2834910D01*
G01X8931550Y2914910D02*
X8962210D01*
G01X8988790Y2834910D02*
Y2914910D01*
X9005450D01*
X9010790Y2910910D01*
X9014120Y2905580D01*
X9015450Y2894910D01*
X9014120Y2884240D01*
X9010120Y2877580D01*
X9005450Y2873580D01*
X8988790D01*
G01X9005450D02*
X9015450Y2834910D01*
G01X9049360Y2914910D02*
X9065360D01*
G01X9057360D02*
Y2834910D01*
G01X9049360D02*
X9065360D01*
G01X9127270Y2908240D02*
X9123270Y2912240D01*
X9118600Y2914910D01*
X9113270D01*
X9107270Y2910910D01*
X9102600Y2904240D01*
X9099270Y2896240D01*
X9096600Y2882910D01*
X9095930Y2870910D01*
X9097270Y2858910D01*
X9099270Y2850910D01*
X9103270Y2842910D01*
X9107930Y2837580D01*
X9112600Y2834910D01*
X9117270D01*
X9121930Y2837580D01*
X9125930Y2841580D01*
X9129270Y2846910D01*
G01X8435050Y5394830D02*
X8464390Y5453500D01*
G01X8449720Y5464170D02*
Y5384170D01*
G01X8464390Y5394830D02*
X8435050Y5453500D01*
G01X8429720Y5424170D02*
X8469720D01*
G01X8601440Y5408160D02*
X8606770Y5401500D01*
X8612770Y5397500D01*
X8618110D01*
X8623440Y5401500D01*
X8627440Y5408160D01*
X8629440Y5417500D01*
X8628110Y5426830D01*
X8624770Y5434830D01*
X8618770Y5440170D01*
X8610770Y5442830D01*
X8606110Y5448170D01*
X8604110Y5457500D01*
X8605440Y5466830D01*
X8608770Y5473500D01*
X8613440Y5477500D01*
X8618110D01*
X8622770Y5474830D01*
X8626770Y5468170D01*
G01X8656010Y5477500D02*
Y5420170D01*
X8658680Y5408160D01*
X8664010Y5400170D01*
X8670680Y5397500D01*
X8677350Y5400170D01*
X8682680Y5408160D01*
X8685350Y5420170D01*
Y5477500D01*
G01X8712590Y5397500D02*
Y5477500D01*
X8729250D01*
X8734590Y5473500D01*
X8737920Y5468170D01*
X8739250Y5457500D01*
X8737920Y5446830D01*
X8733920Y5440170D01*
X8729250Y5436170D01*
X8712590D01*
G01X8729250D02*
X8739250Y5397500D01*
G01X8768490D02*
Y5477500D01*
X8793830D01*
G01X8784490Y5438830D02*
X8768490D01*
G01X8819730Y5397500D02*
X8836400Y5477500D01*
X8853070Y5397500D01*
G01X8847070Y5425500D02*
X8825730D01*
G01X8906310Y5470830D02*
X8902310Y5474830D01*
X8897640Y5477500D01*
X8892310D01*
X8886310Y5473500D01*
X8881640Y5466830D01*
X8878310Y5458830D01*
X8875640Y5445500D01*
X8874970Y5433500D01*
X8876310Y5421500D01*
X8878310Y5413500D01*
X8882310Y5405500D01*
X8886970Y5400170D01*
X8891640Y5397500D01*
X8896310D01*
X8900970Y5400170D01*
X8904970Y5404170D01*
X8908310Y5409500D01*
G01X8960210Y5397500D02*
X8933550D01*
Y5477500D01*
X8960210D01*
G01X8949550Y5438830D02*
X8933550D01*
G01X8325910Y5158240D02*
Y5078240D01*
X8352570D01*
G01X8394480D02*
Y5158240D01*
X8386480Y5142240D01*
G01Y5078240D02*
X8402480D01*
G01X8504960Y5158240D02*
Y5078240D01*
G01X8489630Y5158240D02*
X8520290D01*
G01X8560200Y5078240D02*
X8554870Y5079570D01*
X8550200Y5084910D01*
X8546200Y5092910D01*
X8543530Y5102240D01*
X8542200Y5112910D01*
Y5123570D01*
X8543530Y5134240D01*
X8546200Y5143570D01*
X8550200Y5151570D01*
X8554870Y5156910D01*
X8560200Y5158240D01*
X8565530Y5156910D01*
X8570200Y5151570D01*
X8574200Y5143570D01*
X8576870Y5134240D01*
X8578200Y5123570D01*
Y5112910D01*
X8576870Y5102240D01*
X8574200Y5092910D01*
X8570200Y5084910D01*
X8565530Y5079570D01*
X8560200Y5078240D01*
G01X8602110D02*
Y5158240D01*
X8618110D01*
X8623440Y5154240D01*
X8627440Y5144910D01*
X8628770Y5134240D01*
X8627440Y5123570D01*
X8624110Y5115570D01*
X8618110Y5111570D01*
X8602110D01*
G01X8740590Y5151570D02*
X8736590Y5155570D01*
X8731920Y5158240D01*
X8726590D01*
X8720590Y5154240D01*
X8715920Y5147570D01*
X8712590Y5139570D01*
X8709920Y5126240D01*
X8709250Y5114240D01*
X8710590Y5102240D01*
X8712590Y5094240D01*
X8716590Y5086240D01*
X8721250Y5080910D01*
X8725920Y5078240D01*
X8730590D01*
X8735250Y5080910D01*
X8739250Y5084910D01*
X8742590Y5090240D01*
G01X8781160Y5078240D02*
X8775830Y5079570D01*
X8771160Y5084910D01*
X8767160Y5092910D01*
X8764490Y5102240D01*
X8763160Y5112910D01*
Y5123570D01*
X8764490Y5134240D01*
X8767160Y5143570D01*
X8771160Y5151570D01*
X8775830Y5156910D01*
X8781160Y5158240D01*
X8786490Y5156910D01*
X8791160Y5151570D01*
X8795160Y5143570D01*
X8797830Y5134240D01*
X8799160Y5123570D01*
Y5112910D01*
X8797830Y5102240D01*
X8795160Y5092910D01*
X8791160Y5084910D01*
X8786490Y5079570D01*
X8781160Y5078240D01*
G01X8821070D02*
Y5158240D01*
X8851730Y5078240D01*
Y5158240D01*
G01X8876970Y5078240D02*
Y5158240D01*
X8890310D01*
X8895640Y5154240D01*
X8899640Y5148910D01*
X8902970Y5140910D01*
X8905640Y5131570D01*
X8906310Y5118240D01*
X8905640Y5104910D01*
X8902970Y5095570D01*
X8899640Y5087570D01*
X8895640Y5082240D01*
X8890310Y5078240D01*
X8876970D01*
G01X8932210Y5158240D02*
Y5100910D01*
X8934880Y5088900D01*
X8940210Y5080910D01*
X8946880Y5078240D01*
X8953550Y5080910D01*
X8958880Y5088900D01*
X8961550Y5100910D01*
Y5158240D01*
G01X9016790Y5151570D02*
X9012790Y5155570D01*
X9008120Y5158240D01*
X9002790D01*
X8996790Y5154240D01*
X8992120Y5147570D01*
X8988790Y5139570D01*
X8986120Y5126240D01*
X8985450Y5114240D01*
X8986790Y5102240D01*
X8988790Y5094240D01*
X8992790Y5086240D01*
X8997450Y5080910D01*
X9002120Y5078240D01*
X9006790D01*
X9011450Y5080910D01*
X9015450Y5084910D01*
X9018790Y5090240D01*
G01X9057360Y5158240D02*
Y5078240D01*
G01X9042030Y5158240D02*
X9072690D01*
G01X9112600Y5078240D02*
X9107270Y5079570D01*
X9102600Y5084910D01*
X9098600Y5092910D01*
X9095930Y5102240D01*
X9094600Y5112910D01*
Y5123570D01*
X9095930Y5134240D01*
X9098600Y5143570D01*
X9102600Y5151570D01*
X9107270Y5156910D01*
X9112600Y5158240D01*
X9117930Y5156910D01*
X9122600Y5151570D01*
X9126600Y5143570D01*
X9129270Y5134240D01*
X9130600Y5123570D01*
Y5112910D01*
X9129270Y5102240D01*
X9126600Y5092910D01*
X9122600Y5084910D01*
X9117930Y5079570D01*
X9112600Y5078240D01*
G01X9154510D02*
Y5158240D01*
X9171170D01*
X9176510Y5154240D01*
X9179840Y5148910D01*
X9181170Y5138240D01*
X9179840Y5127570D01*
X9175840Y5120910D01*
X9171170Y5116910D01*
X9154510D01*
G01X9171170D02*
X9181170Y5078240D01*
G01X-2040000Y6255000D02*
Y8810000D01*
X10558400D01*
Y6255000D01*
X-2040000D01*
G01Y6890000D02*
X10558400D01*
G01X-2040000Y7525000D02*
X10558400D01*
G01X-2040000Y8160000D02*
X10558400D01*
G01X-250000Y0D02*
X-1140000D01*
G01X-1000240Y2151250D02*
Y2468750D01*
X-1145910Y2241210D01*
X-949050D01*
G01X-732520Y2468750D02*
X-764020Y2458170D01*
X-787640Y2431710D01*
X-803390Y2399960D01*
X-815200Y2357620D01*
X-819130Y2310000D01*
X-815200Y2262370D01*
X-803390Y2220040D01*
X-787640Y2188280D01*
X-764020Y2161830D01*
X-732520Y2151250D01*
X-701030Y2161830D01*
X-677400Y2188280D01*
X-661650Y2220040D01*
X-649840Y2262370D01*
X-645910Y2310000D01*
X-649840Y2357620D01*
X-661650Y2399960D01*
X-677400Y2431710D01*
X-701030Y2458170D01*
X-732520Y2468750D01*
G01X-250000Y4000000D02*
X-1140000D01*
G01X-1760480Y7048750D02*
Y7366250D01*
X-1610860D01*
G01X-1665990Y7212800D02*
X-1760480D01*
G01X-1417950Y7366250D02*
X-1323470D01*
G01X-1370710D02*
Y7048750D01*
G01X-1417950D02*
X-1323470D01*
G01X-1032130Y7207500D02*
X-953380D01*
Y7112250D01*
X-977010Y7080490D01*
X-1004570Y7059330D01*
X-1043940Y7048750D01*
X-1083310Y7059330D01*
X-1110870Y7080490D01*
X-1134490Y7112250D01*
X-1150240Y7149290D01*
X-1158120Y7191620D01*
Y7228670D01*
X-1150240Y7260410D01*
X-1134490Y7297460D01*
X-1110870Y7329210D01*
X-1087250Y7350370D01*
X-1055750Y7366250D01*
X-1028190D01*
X-996700Y7355670D01*
X-973070Y7334500D01*
G01X-827400Y7366250D02*
Y7138710D01*
X-811660Y7091070D01*
X-780160Y7059330D01*
X-740790Y7048750D01*
X-701420Y7059330D01*
X-669920Y7091070D01*
X-654180Y7138710D01*
Y7366250D01*
G01X-504570Y7048750D02*
Y7366250D01*
X-406150D01*
X-374650Y7350370D01*
X-354960Y7329210D01*
X-347090Y7286870D01*
X-354960Y7244540D01*
X-378590Y7218090D01*
X-406150Y7202200D01*
X-504570D01*
G01X-406150D02*
X-347090Y7048750D01*
G01X-32130D02*
X-189610D01*
Y7366250D01*
X-32130D01*
G01X-95120Y7212800D02*
X-189610D01*
G01X-890000Y1913130D02*
Y0D01*
G01X-952500Y400000D02*
X-890000Y0D01*
X-827500Y400000D01*
X-952500D01*
G01X-890000Y2706870D02*
Y4000000D01*
G01X-827500Y3600000D02*
X-890000Y4000000D01*
X-952500Y3600000D01*
X-827500D01*
G01X0Y0D02*
Y4000000D01*
X4000000D01*
Y0D01*
X0D01*
G01X-10000Y4330000D02*
Y4810000D01*
G01X1446290Y4560000D02*
X-10000D01*
G01X390000Y4622500D02*
X-10000Y4560000D01*
X390000Y4497500D01*
Y4622500D01*
G01X243460Y7525000D02*
Y6255000D01*
G01X-91190Y7683750D02*
X7240Y8001250D01*
X105670Y7683750D01*
G01X70230Y7794870D02*
X-55760D01*
G01X243460Y8001250D02*
Y7683750D01*
X400940D01*
G01X558420Y8001250D02*
Y7683750D01*
X715900D01*
G01X1180470Y8001250D02*
Y7773710D01*
X1196210Y7726070D01*
X1227710Y7694330D01*
X1267080Y7683750D01*
X1306450Y7694330D01*
X1337950Y7726070D01*
X1353690Y7773710D01*
Y8001250D01*
G01X1491490Y7683750D02*
Y8001250D01*
X1672590Y7683750D01*
Y8001250D01*
G01X1849760D02*
X1944240D01*
G01X1897000D02*
Y7683750D01*
G01X1849760D02*
X1944240D01*
G01X2211960Y8001250D02*
Y7683750D01*
G01X2121410Y8001250D02*
X2302510D01*
G01X2444240Y7726070D02*
X2475740Y7699620D01*
X2511170Y7683750D01*
X2542670D01*
X2574160Y7699620D01*
X2597790Y7726070D01*
X2609600Y7763130D01*
X2601730Y7800160D01*
X2582040Y7831910D01*
X2546600Y7853090D01*
X2499360Y7863670D01*
X2471800Y7884830D01*
X2459990Y7921870D01*
X2467870Y7958920D01*
X2487550Y7985370D01*
X2515110Y8001250D01*
X2542670D01*
X2570230Y7990670D01*
X2593850Y7964210D01*
G01X3058410Y7683750D02*
X3156840Y8001250D01*
X3255270Y7683750D01*
G01X3219830Y7794870D02*
X3093840D01*
G01X3393060Y7683750D02*
Y8001250D01*
X3491480D01*
X3522980Y7985370D01*
X3542670Y7964210D01*
X3550540Y7921870D01*
X3542670Y7879540D01*
X3519040Y7853090D01*
X3491480Y7837200D01*
X3393060D01*
G01X3491480D02*
X3550540Y7683750D01*
G01X3865500D02*
X3708020D01*
Y8001250D01*
X3865500D01*
G01X3802510Y7847800D02*
X3708020D01*
G01X4369440Y8001250D02*
X4463920D01*
G01X4416680D02*
Y7683750D01*
G01X4369440D02*
X4463920D01*
G01X4641090D02*
Y8001250D01*
X4822190Y7683750D01*
Y8001250D01*
G01X5259190Y7683750D02*
Y8001250D01*
X5361560Y7736670D01*
X5463930Y8001250D01*
Y7683750D01*
G01X5629280Y8001250D02*
X5723760D01*
G01X5676520D02*
Y7683750D01*
G01X5629280D02*
X5723760D01*
G01X5912740Y8001250D02*
Y7683750D01*
X6070220D01*
G01X6227700Y8001250D02*
Y7683750D01*
X6385180D01*
G01X6574160Y8001250D02*
X6668640D01*
G01X6621400D02*
Y7683750D01*
G01X6574160D02*
X6668640D01*
G01X6833990D02*
Y8001250D01*
X6936360Y7736670D01*
X7038730Y8001250D01*
Y7683750D01*
G01X7330060D02*
X7172580D01*
Y8001250D01*
X7330060D01*
G01X7267070Y7847800D02*
X7172580D01*
G01X7566280Y8001250D02*
Y7683750D01*
G01X7475730Y8001250D02*
X7656830D01*
G01X7959980Y7683750D02*
X7802500D01*
Y8001250D01*
X7959980D01*
G01X7896990Y7847800D02*
X7802500D01*
G01X8117460Y7683750D02*
Y8001250D01*
X8215880D01*
X8247380Y7985370D01*
X8267070Y7964210D01*
X8274940Y7921870D01*
X8267070Y7879540D01*
X8243440Y7853090D01*
X8215880Y7837200D01*
X8117460D01*
G01X8215880D02*
X8274940Y7683750D01*
G01X8428480Y7726070D02*
X8459980Y7699620D01*
X8495410Y7683750D01*
X8526910D01*
X8558400Y7699620D01*
X8582030Y7726070D01*
X8593840Y7763130D01*
X8585970Y7800160D01*
X8566280Y7831910D01*
X8530840Y7853090D01*
X8483600Y7863670D01*
X8456040Y7884830D01*
X8444230Y7921870D01*
X8452110Y7958920D01*
X8471790Y7985370D01*
X8499350Y8001250D01*
X8526910D01*
X8554470Y7990670D01*
X8578090Y7964210D01*
G01X235590Y8333750D02*
Y8651250D01*
X314320D01*
X345820Y8635370D01*
X369440Y8614210D01*
X389130Y8582460D01*
X404880Y8545410D01*
X408810Y8492500D01*
X404880Y8439580D01*
X389130Y8402540D01*
X369440Y8370780D01*
X345820Y8349620D01*
X314320Y8333750D01*
X235590D01*
G01X558420D02*
Y8651250D01*
X656840D01*
X688340Y8635370D01*
X708030Y8614210D01*
X715900Y8571870D01*
X708030Y8529540D01*
X684400Y8503090D01*
X656840Y8487200D01*
X558420D01*
G01X656840D02*
X715900Y8333750D01*
G01X904880Y8651250D02*
X999360D01*
G01X952120D02*
Y8333750D01*
G01X904880D02*
X999360D01*
G01X1188340Y8651250D02*
Y8333750D01*
X1345820D01*
G01X1503300Y8651250D02*
Y8333750D01*
X1660780D01*
G01X2298570Y8624790D02*
X2274950Y8640670D01*
X2247400Y8651250D01*
X2215900D01*
X2180460Y8635370D01*
X2152910Y8608920D01*
X2133220Y8577160D01*
X2117470Y8524250D01*
X2113530Y8476620D01*
X2121410Y8429000D01*
X2133220Y8397250D01*
X2156840Y8365490D01*
X2184400Y8344330D01*
X2211960Y8333750D01*
X2239520D01*
X2267080Y8344330D01*
X2290700Y8360200D01*
X2310390Y8381360D01*
G01X2444240Y8333750D02*
Y8651250D01*
G01X2609600D02*
Y8333750D01*
G01Y8492500D02*
X2444240D01*
G01X2743450Y8333750D02*
X2841880Y8651250D01*
X2940310Y8333750D01*
G01X2904870Y8444870D02*
X2778880D01*
G01X3078100Y8333750D02*
Y8651250D01*
X3176520D01*
X3208020Y8635370D01*
X3227710Y8614210D01*
X3235580Y8571870D01*
X3227710Y8529540D01*
X3204080Y8503090D01*
X3176520Y8487200D01*
X3078100D01*
G01X3176520D02*
X3235580Y8333750D01*
G01X3471800Y8651250D02*
Y8333750D01*
G01X3381250Y8651250D02*
X3562350D01*
G01X3786760Y8323170D02*
X3778880Y8328460D01*
Y8339040D01*
X3786760Y8344330D01*
X3794640Y8339040D01*
Y8328460D01*
X3786760Y8323170D01*
G01Y8466030D02*
X3778880Y8471330D01*
Y8481910D01*
X3786760Y8487200D01*
X3794640Y8481910D01*
Y8471330D01*
X3786760Y8466030D01*
G01X4416680Y8651250D02*
Y8333750D01*
G01X4326130Y8651250D02*
X4507230D01*
G01X4731640Y8333750D02*
X4700140Y8339040D01*
X4672590Y8360200D01*
X4648960Y8391960D01*
X4633210Y8429000D01*
X4625340Y8471330D01*
Y8513670D01*
X4633210Y8556000D01*
X4648960Y8593040D01*
X4672590Y8624790D01*
X4700140Y8645960D01*
X4731640Y8651250D01*
X4763130Y8645960D01*
X4790690Y8624790D01*
X4814320Y8593040D01*
X4830070Y8556000D01*
X4837940Y8513670D01*
Y8471330D01*
X4830070Y8429000D01*
X4814320Y8391960D01*
X4790690Y8360200D01*
X4763130Y8339040D01*
X4731640Y8333750D01*
G01X4967860D02*
Y8651250D01*
X5062350D01*
X5093840Y8635370D01*
X5117470Y8598330D01*
X5125340Y8556000D01*
X5117470Y8513670D01*
X5097780Y8481910D01*
X5062350Y8466030D01*
X4967860D01*
G01X5676520Y8651250D02*
Y8333750D01*
G01X5621400Y8545410D02*
X5731640D01*
G01X5991480Y8333750D02*
X5967860Y8339040D01*
X5944240Y8360200D01*
X5928480Y8397250D01*
X5920610Y8439580D01*
X5928480Y8481910D01*
X5944240Y8518960D01*
X5967860Y8540120D01*
X5991480Y8545410D01*
X6015100Y8540120D01*
X6038720Y8518960D01*
X6054470Y8481910D01*
X6058410Y8439580D01*
X6054470Y8397250D01*
X6038720Y8360200D01*
X6015100Y8339040D01*
X5991480Y8333750D01*
G01X6652890Y8503090D02*
X6668640Y8518960D01*
X6680450Y8545410D01*
X6688330Y8582460D01*
X6680450Y8614210D01*
X6664710Y8635370D01*
X6637150Y8651250D01*
X6530850D01*
Y8333750D01*
X6660770D01*
X6688330Y8354910D01*
X6704080Y8386670D01*
X6711950Y8423710D01*
X6704080Y8460740D01*
X6680450Y8492500D01*
X6652890Y8503090D01*
X6530850D01*
G01X6936360Y8333750D02*
X6904860Y8339040D01*
X6877310Y8360200D01*
X6853680Y8391960D01*
X6837930Y8429000D01*
X6830060Y8471330D01*
Y8513670D01*
X6837930Y8556000D01*
X6853680Y8593040D01*
X6877310Y8624790D01*
X6904860Y8645960D01*
X6936360Y8651250D01*
X6967850Y8645960D01*
X6995410Y8624790D01*
X7019040Y8593040D01*
X7034790Y8556000D01*
X7042660Y8513670D01*
Y8471330D01*
X7034790Y8429000D01*
X7019040Y8391960D01*
X6995410Y8360200D01*
X6967850Y8339040D01*
X6936360Y8333750D01*
G01X7251320Y8651250D02*
Y8333750D01*
G01X7160770Y8651250D02*
X7341870D01*
G01X7566280D02*
Y8333750D01*
G01X7475730Y8651250D02*
X7656830D01*
G01X7881240Y8333750D02*
X7849740Y8339040D01*
X7822190Y8360200D01*
X7798560Y8391960D01*
X7782810Y8429000D01*
X7774940Y8471330D01*
Y8513670D01*
X7782810Y8556000D01*
X7798560Y8593040D01*
X7822190Y8624790D01*
X7849740Y8645960D01*
X7881240Y8651250D01*
X7912730Y8645960D01*
X7940290Y8624790D01*
X7963920Y8593040D01*
X7979670Y8556000D01*
X7987540Y8513670D01*
Y8471330D01*
X7979670Y8429000D01*
X7963920Y8391960D01*
X7940290Y8360200D01*
X7912730Y8339040D01*
X7881240Y8333750D01*
G01X8093830D02*
Y8651250D01*
X8196200Y8386670D01*
X8298570Y8651250D01*
Y8333750D01*
G01X837940Y7048750D02*
Y7366250D01*
X987560D01*
G01X932430Y7212800D02*
X837940D01*
G01X1180470Y7366250D02*
X1274950D01*
G01X1227710D02*
Y7048750D01*
G01X1180470D02*
X1274950D01*
G01X1452120D02*
Y7366250D01*
X1633220Y7048750D01*
Y7366250D01*
G01X1810390D02*
X1904870D01*
G01X1857630D02*
Y7048750D01*
G01X1810390D02*
X1904870D01*
G01X2089910Y7091070D02*
X2121410Y7064620D01*
X2156840Y7048750D01*
X2188340D01*
X2219830Y7064620D01*
X2243460Y7091070D01*
X2255270Y7128130D01*
X2247400Y7165160D01*
X2227710Y7196910D01*
X2192270Y7218090D01*
X2145030Y7228670D01*
X2117470Y7249830D01*
X2105660Y7286870D01*
X2113540Y7323920D01*
X2133220Y7350370D01*
X2160780Y7366250D01*
X2188340D01*
X2215900Y7355670D01*
X2239520Y7329210D01*
G01X2404870Y7048750D02*
Y7366250D01*
G01X2570230D02*
Y7048750D01*
G01Y7207500D02*
X2404870D01*
G01X2881250Y7048750D02*
X2723770D01*
Y7366250D01*
X2881250D01*
G01X2818260Y7212800D02*
X2723770D01*
G01X3030860Y7048750D02*
Y7366250D01*
X3109590D01*
X3141090Y7350370D01*
X3164710Y7329210D01*
X3184400Y7297460D01*
X3200150Y7260410D01*
X3204080Y7207500D01*
X3200150Y7154580D01*
X3184400Y7117540D01*
X3164710Y7085780D01*
X3141090Y7064620D01*
X3109590Y7048750D01*
X3030860D01*
G01X3314320Y6942920D02*
X3550540D01*
G01X3664710Y7091070D02*
X3696210Y7064620D01*
X3731640Y7048750D01*
X3763140D01*
X3794630Y7064620D01*
X3818260Y7091070D01*
X3830070Y7128130D01*
X3822200Y7165160D01*
X3802510Y7196910D01*
X3767070Y7218090D01*
X3719830Y7228670D01*
X3692270Y7249830D01*
X3680460Y7286870D01*
X3688340Y7323920D01*
X3708020Y7350370D01*
X3735580Y7366250D01*
X3763140D01*
X3790700Y7355670D01*
X3814320Y7329210D01*
G01X4015110Y7366250D02*
X4109590D01*
G01X4062350D02*
Y7048750D01*
G01X4015110D02*
X4109590D01*
G01X4302500Y7366250D02*
X4452120D01*
X4302500Y7048750D01*
X4452120D01*
G01X4771010D02*
X4613530D01*
Y7366250D01*
X4771010D01*
G01X4708020Y7212800D02*
X4613530D01*
G01X1849760Y4401250D02*
Y4718750D01*
X1704090Y4491210D01*
X1900950D01*
G01X2117480Y4718750D02*
X2085980Y4708170D01*
X2062360Y4681710D01*
X2046610Y4649960D01*
X2034800Y4607620D01*
X2030870Y4560000D01*
X2034800Y4512370D01*
X2046610Y4470040D01*
X2062360Y4438280D01*
X2085980Y4411830D01*
X2117480Y4401250D01*
X2148970Y4411830D01*
X2172600Y4438280D01*
X2188350Y4470040D01*
X2200160Y4512370D01*
X2204090Y4560000D01*
X2200160Y4607620D01*
X2188350Y4649960D01*
X2172600Y4681710D01*
X2148970Y4708170D01*
X2117480Y4718750D01*
G01X2473710Y4560000D02*
X3990000D01*
G01X2487550Y6731250D02*
X2456050Y6720670D01*
X2432430Y6694210D01*
X2416680Y6662460D01*
X2404870Y6620120D01*
X2400940Y6572500D01*
X2404870Y6524870D01*
X2416680Y6482540D01*
X2432430Y6450780D01*
X2456050Y6424330D01*
X2487550Y6413750D01*
X2519040Y6424330D01*
X2542670Y6450780D01*
X2558420Y6482540D01*
X2570230Y6524870D01*
X2574160Y6572500D01*
X2570230Y6620120D01*
X2558420Y6662460D01*
X2542670Y6694210D01*
X2519040Y6720670D01*
X2487550Y6731250D01*
G01X2802510Y6403170D02*
X2794630Y6408460D01*
Y6419040D01*
X2802510Y6424330D01*
X2810390Y6419040D01*
Y6408460D01*
X2802510Y6403170D01*
G01X3164710Y6413750D02*
Y6731250D01*
X3019040Y6503710D01*
X3215900D01*
G01X3990000Y4320000D02*
Y4810000D01*
G01X3590000Y4497500D02*
X3990000Y4560000D01*
X3590000Y4622500D01*
Y4497500D01*
G01X5361560Y7525000D02*
Y6255000D01*
G01X6109590Y6413750D02*
Y6731250D01*
X6204080D01*
X6235570Y6715370D01*
X6259200Y6678330D01*
X6267070Y6636000D01*
X6259200Y6593670D01*
X6239510Y6561910D01*
X6204080Y6546030D01*
X6109590D01*
G01X6424550Y6731250D02*
Y6413750D01*
X6582030D01*
G01X6719820D02*
X6818250Y6731250D01*
X6916680Y6413750D01*
G01X6881240Y6524870D02*
X6755250D01*
G01X7133210Y6731250D02*
Y6413750D01*
G01X7042660Y6731250D02*
X7223760D01*
G01X7526910Y6413750D02*
X7369430D01*
Y6731250D01*
X7526910D01*
G01X7463920Y6577800D02*
X7369430D01*
G01X7676520Y6413750D02*
Y6731250D01*
X7755250D01*
X7786750Y6715370D01*
X7810370Y6694210D01*
X7830060Y6662460D01*
X7845810Y6625410D01*
X7849740Y6572500D01*
X7845810Y6519580D01*
X7830060Y6482540D01*
X7810370Y6450780D01*
X7786750Y6429620D01*
X7755250Y6413750D01*
X7676520D01*
G01X6109590Y7048750D02*
Y7366250D01*
X6204080D01*
X6235570Y7350370D01*
X6259200Y7313330D01*
X6267070Y7271000D01*
X6259200Y7228670D01*
X6239510Y7196910D01*
X6204080Y7181030D01*
X6109590D01*
G01X6424550Y7366250D02*
Y7048750D01*
X6582030D01*
G01X6719820D02*
X6818250Y7366250D01*
X6916680Y7048750D01*
G01X6881240Y7159870D02*
X6755250D01*
G01X7133210Y7366250D02*
Y7048750D01*
G01X7042660Y7366250D02*
X7223760D01*
G01X7526910Y7048750D02*
X7369430D01*
Y7366250D01*
X7526910D01*
G01X7463920Y7212800D02*
X7369430D01*
G01X7676520Y7048750D02*
Y7366250D01*
X7755250D01*
X7786750Y7350370D01*
X7810370Y7329210D01*
X7830060Y7297460D01*
X7845810Y7260410D01*
X7849740Y7207500D01*
X7845810Y7154580D01*
X7830060Y7117540D01*
X7810370Y7085780D01*
X7786750Y7064620D01*
X7755250Y7048750D01*
X7676520D01*
G01X6740000Y884190D02*
Y4785630D01*
X8264000D01*
Y884190D01*
X6740000D01*
G01X8589900Y7525000D02*
Y6255000D01*
G01X9341860Y6678330D02*
X9365490Y6710080D01*
X9393050Y6725960D01*
X9424550Y6731250D01*
X9463910Y6720670D01*
X9491480Y6694210D01*
X9499350Y6662460D01*
X9495410Y6630700D01*
X9479660Y6604250D01*
X9400920Y6551330D01*
X9365490Y6514290D01*
X9341860Y6461360D01*
X9333990Y6413750D01*
X9499350D01*
G01X9656820Y6546030D02*
X9684390Y6583090D01*
X9708010Y6604250D01*
X9739510Y6614830D01*
X9767070Y6604250D01*
X9786750Y6583090D01*
X9802500Y6551330D01*
X9806440Y6514290D01*
X9802500Y6482540D01*
X9786750Y6450780D01*
X9763120Y6424330D01*
X9735570Y6413750D01*
X9704070Y6424330D01*
X9676510Y6456070D01*
X9660760Y6503710D01*
X9656820Y6556620D01*
X9664700Y6625410D01*
X9676510Y6662460D01*
X9696190Y6699500D01*
X9723750Y6725960D01*
X9751310Y6731250D01*
X9778870Y6720670D01*
X9798560Y6694210D01*
G01X9259190Y7048750D02*
X9227690Y7054040D01*
X9200140Y7075200D01*
X9176510Y7106960D01*
X9160760Y7144000D01*
X9152890Y7186330D01*
Y7228670D01*
X9160760Y7271000D01*
X9176510Y7308040D01*
X9200140Y7339790D01*
X9227690Y7360960D01*
X9259190Y7366250D01*
X9290680Y7360960D01*
X9318240Y7339790D01*
X9341870Y7308040D01*
X9357620Y7271000D01*
X9365490Y7228670D01*
Y7186330D01*
X9357620Y7144000D01*
X9341870Y7106960D01*
X9318240Y7075200D01*
X9290680Y7054040D01*
X9259190Y7048750D01*
G01X9290680Y7133420D02*
X9337930Y7048750D01*
G01X9574150Y7366250D02*
Y7048750D01*
G01X9483600Y7366250D02*
X9664700D01*
G01X9889110Y7048750D02*
Y7191620D01*
X9810370Y7366250D01*
G01X9967850D02*
X9889110Y7191620D01*
M02*
