G04 ================== begin FILE IDENTIFICATION RECORD ==================*
G04 Layout Name:  E:/PROIECT1/allegro/P1_SERS_PREFAC RALUCA_431C.brd*
G04 Film Name:    SSTOP*
G04 File Format:  Gerber RS274X*
G04 File Origin:  Cadence Allegro 17.2-S025*
G04 Origin Date:  Sat Dec 09 14:05:26 2023*
G04 *
G04 Layer:  REF DES/SILKSCREEN_TOP*
G04 Layer:  PACKAGE GEOMETRY/SILKSCREEN_TOP*
G04 Layer:  BOARD GEOMETRY/SILKSCREEN_TOP*
G04 *
G04 Offset:    (0.0000 0.0000)*
G04 Mirror:    No*
G04 Mode:      Positive*
G04 Rotation:  0*
G04 FullContactRelief:  No*
G04 UndefLineWidth:     0.1500*
G04 ================== end FILE IDENTIFICATION RECORD ====================*
%FSLAX25Y25*MOMM*%
%IR0*IPPOS*OFA0.00000B0.00000*MIA0B0*SFA1.00000B1.00000*%
%ADD10C,.2*%
%ADD11C,.15*%
%ADD12C,.1524*%
G75*
%LPD*%
G75*
G54D10*
G01X2855000Y2990000D02*
X2720000D01*
Y2490000D01*
X2775000D01*
G01X3085000Y2990000D02*
X3220000D01*
Y2490000D01*
X3165000D01*
G01X3005000D02*
X2935000D01*
G54D11*
G01X267790Y1364000D02*
Y1442740D01*
X287260D01*
X295050Y1438800D01*
X300890Y1433550D01*
X305760Y1425680D01*
X309660Y1416490D01*
X310630Y1403370D01*
X309660Y1390250D01*
X305760Y1381060D01*
X300890Y1373180D01*
X295050Y1367940D01*
X287260Y1364000D01*
X267790D01*
G01X346530Y1379750D02*
X352370Y1370560D01*
X360160Y1365310D01*
X368920Y1364000D01*
X376710Y1365310D01*
X384500Y1371870D01*
X389370Y1379750D01*
X390340Y1387620D01*
X388400Y1396810D01*
X381580Y1403370D01*
X374770Y1406000D01*
X366000D01*
G01X374770D02*
X380610Y1409930D01*
X385480Y1416490D01*
X387420Y1424370D01*
X385480Y1432240D01*
X380610Y1438800D01*
X371840Y1442740D01*
X363080Y1441430D01*
X354320Y1436180D01*
G01X271790Y2146000D02*
Y2224740D01*
X291260D01*
X299050Y2220800D01*
X304890Y2215550D01*
X309760Y2207680D01*
X313660Y2198490D01*
X314630Y2185370D01*
X313660Y2172250D01*
X309760Y2163060D01*
X304890Y2155180D01*
X299050Y2149940D01*
X291260Y2146000D01*
X271790D01*
G01X353450Y2211620D02*
X359290Y2219490D01*
X366110Y2223430D01*
X373900Y2224740D01*
X383630Y2222120D01*
X390450Y2215550D01*
X392400Y2207680D01*
X391420Y2199800D01*
X387530Y2193240D01*
X368060Y2180120D01*
X359290Y2170930D01*
X353450Y2157810D01*
X351500Y2146000D01*
X392400D01*
G01X279740Y3335750D02*
X284610Y3327870D01*
X290450Y3322620D01*
X297260Y3320000D01*
X305050Y3322620D01*
X310890Y3327870D01*
X316740Y3335750D01*
X318680Y3346250D01*
Y3398740D01*
G01X377950Y3320000D02*
Y3398740D01*
X366270Y3382990D01*
G01Y3320000D02*
X389630D01*
G01X450630Y3852180D02*
X444790Y3856120D01*
X437970Y3858740D01*
X430180D01*
X421420Y3854800D01*
X414610Y3848240D01*
X409740Y3840370D01*
X405840Y3827240D01*
X404870Y3815430D01*
X406820Y3803620D01*
X409740Y3795750D01*
X415580Y3787870D01*
X422390Y3782620D01*
X429210Y3780000D01*
X436030D01*
X442840Y3782620D01*
X448680Y3786560D01*
X453550Y3791810D01*
G01X507950Y3780000D02*
Y3858740D01*
X496270Y3842990D01*
G01Y3780000D02*
X519630D01*
G01X782790Y1090000D02*
Y1168740D01*
X802260D01*
X810050Y1164800D01*
X815890Y1159550D01*
X820760Y1151680D01*
X824660Y1142490D01*
X825630Y1129370D01*
X824660Y1116250D01*
X820760Y1107060D01*
X815890Y1099180D01*
X810050Y1093940D01*
X802260Y1090000D01*
X782790D01*
G01X882950D02*
Y1168740D01*
X871270Y1152990D01*
G01Y1090000D02*
X894630D01*
G01X825630Y1722180D02*
X819790Y1726120D01*
X812970Y1728740D01*
X805180D01*
X796420Y1724800D01*
X789610Y1718240D01*
X784740Y1710370D01*
X780840Y1697240D01*
X779870Y1685430D01*
X781820Y1673620D01*
X784740Y1665750D01*
X790580Y1657870D01*
X797390Y1652620D01*
X804210Y1650000D01*
X811030D01*
X817840Y1652620D01*
X823680Y1656560D01*
X828550Y1661810D01*
G01X864450Y1715620D02*
X870290Y1723490D01*
X877110Y1727430D01*
X884900Y1728740D01*
X894630Y1726120D01*
X901450Y1719550D01*
X903400Y1711680D01*
X902420Y1703800D01*
X898530Y1697240D01*
X879060Y1684120D01*
X870290Y1674930D01*
X864450Y1661810D01*
X862500Y1650000D01*
X903400D01*
G01X759740Y2025000D02*
Y2103740D01*
X784080D01*
X791870Y2099800D01*
X796740Y2094550D01*
X798680Y2084050D01*
X796740Y2073560D01*
X790890Y2067000D01*
X784080Y2063060D01*
X759740D01*
G01X784080D02*
X798680Y2025000D01*
G01X841400Y2034180D02*
X848210Y2027620D01*
X856000Y2025000D01*
X863790Y2027620D01*
X870610Y2035500D01*
X875480Y2047310D01*
X877420Y2059120D01*
Y2073560D01*
X875480Y2085370D01*
X870610Y2095870D01*
X864770Y2101120D01*
X857950Y2103740D01*
X850160Y2101120D01*
X844320Y2095870D01*
X840420Y2087990D01*
X838480Y2077490D01*
X840420Y2068310D01*
X845290Y2059120D01*
X851130Y2053870D01*
X857950Y2052560D01*
X865740Y2055180D01*
X871580Y2061740D01*
X877420Y2073560D01*
G01X1149210Y2875000D02*
X1141420Y2876310D01*
X1134610Y2881560D01*
X1128760Y2889430D01*
X1124870Y2898620D01*
X1122920Y2909120D01*
Y2919620D01*
X1124870Y2930120D01*
X1128760Y2939310D01*
X1134610Y2947180D01*
X1141420Y2952430D01*
X1149210Y2953740D01*
X1157000Y2952430D01*
X1163810Y2947180D01*
X1169660Y2939310D01*
X1173550Y2930120D01*
X1175500Y2919620D01*
Y2909120D01*
X1173550Y2898620D01*
X1169660Y2889430D01*
X1163810Y2881560D01*
X1157000Y2876310D01*
X1149210Y2875000D01*
G01X1157000Y2896000D02*
X1168680Y2875000D01*
G01X1206530Y2886810D02*
X1212370Y2880250D01*
X1219190Y2876310D01*
X1227950Y2875000D01*
X1236710Y2877620D01*
X1243530Y2882870D01*
X1248400Y2892060D01*
X1249370Y2902560D01*
X1247420Y2913060D01*
X1242550Y2919620D01*
X1235740Y2924870D01*
X1228920Y2926180D01*
X1222110Y2924870D01*
X1213350Y2919620D01*
X1216270Y2953740D01*
X1242550D01*
G01X749740Y2830000D02*
Y2908740D01*
X774080D01*
X781870Y2904800D01*
X786740Y2899550D01*
X788680Y2889050D01*
X786740Y2878560D01*
X780890Y2872000D01*
X774080Y2868060D01*
X749740D01*
G01X774080D02*
X788680Y2830000D01*
G01X829450Y2862810D02*
X836270Y2872000D01*
X842110Y2877240D01*
X849900Y2879870D01*
X856710Y2877240D01*
X861580Y2872000D01*
X865480Y2864120D01*
X866450Y2854930D01*
X865480Y2847060D01*
X861580Y2839180D01*
X855740Y2832620D01*
X848920Y2830000D01*
X841130Y2832620D01*
X834320Y2840500D01*
X830420Y2852310D01*
X829450Y2865430D01*
X831400Y2882490D01*
X834320Y2891680D01*
X839190Y2900870D01*
X846000Y2907430D01*
X852820Y2908740D01*
X859630Y2906120D01*
X864500Y2899550D01*
G01X1109740Y3460000D02*
Y3538740D01*
X1134080D01*
X1141870Y3534800D01*
X1146740Y3529550D01*
X1148680Y3519050D01*
X1146740Y3508560D01*
X1140890Y3502000D01*
X1134080Y3498060D01*
X1109740D01*
G01X1134080D02*
X1148680Y3460000D01*
G01X1189450Y3525620D02*
X1195290Y3533490D01*
X1202110Y3537430D01*
X1209900Y3538740D01*
X1219630Y3536120D01*
X1226450Y3529550D01*
X1228400Y3521680D01*
X1227420Y3513800D01*
X1223530Y3507240D01*
X1204060Y3494120D01*
X1195290Y3484930D01*
X1189450Y3471810D01*
X1187500Y3460000D01*
X1228400D01*
G01X739740D02*
Y3538740D01*
X764080D01*
X771870Y3534800D01*
X776740Y3529550D01*
X778680Y3519050D01*
X776740Y3508560D01*
X770890Y3502000D01*
X764080Y3498060D01*
X739740D01*
G01X764080D02*
X778680Y3460000D01*
G01X837950D02*
Y3538740D01*
X826270Y3522990D01*
G01Y3460000D02*
X849630D01*
G01X1059740Y3775000D02*
Y3853740D01*
X1084080D01*
X1091870Y3849800D01*
X1096740Y3844550D01*
X1098680Y3834050D01*
X1096740Y3823560D01*
X1090890Y3817000D01*
X1084080Y3813060D01*
X1059740D01*
G01X1084080D02*
X1098680Y3775000D01*
G01X1169630D02*
Y3853740D01*
X1133610Y3797310D01*
X1182290D01*
G01X1349210Y1190000D02*
X1341420Y1191310D01*
X1334610Y1196560D01*
X1328760Y1204430D01*
X1324870Y1213620D01*
X1322920Y1224120D01*
Y1234620D01*
X1324870Y1245120D01*
X1328760Y1254310D01*
X1334610Y1262180D01*
X1341420Y1267430D01*
X1349210Y1268740D01*
X1357000Y1267430D01*
X1363810Y1262180D01*
X1369660Y1254310D01*
X1373550Y1245120D01*
X1375500Y1234620D01*
Y1224120D01*
X1373550Y1213620D01*
X1369660Y1204430D01*
X1363810Y1196560D01*
X1357000Y1191310D01*
X1349210Y1190000D01*
G01X1357000Y1211000D02*
X1368680Y1190000D01*
G01X1411400Y1199180D02*
X1418210Y1192620D01*
X1426000Y1190000D01*
X1433790Y1192620D01*
X1440610Y1200500D01*
X1445480Y1212310D01*
X1447420Y1224120D01*
Y1238560D01*
X1445480Y1250370D01*
X1440610Y1260870D01*
X1434770Y1266120D01*
X1427950Y1268740D01*
X1420160Y1266120D01*
X1414320Y1260870D01*
X1410420Y1252990D01*
X1408480Y1242490D01*
X1410420Y1233310D01*
X1415290Y1224120D01*
X1421130Y1218870D01*
X1427950Y1217560D01*
X1435740Y1220180D01*
X1441580Y1226740D01*
X1447420Y1238560D01*
G01X1787210Y1300000D02*
X1779420Y1301310D01*
X1772610Y1306560D01*
X1766760Y1314430D01*
X1762870Y1323620D01*
X1760920Y1334120D01*
Y1344620D01*
X1762870Y1355120D01*
X1766760Y1364310D01*
X1772610Y1372180D01*
X1779420Y1377430D01*
X1787210Y1378740D01*
X1795000Y1377430D01*
X1801810Y1372180D01*
X1807660Y1364310D01*
X1811550Y1355120D01*
X1813500Y1344620D01*
Y1334120D01*
X1811550Y1323620D01*
X1807660Y1314430D01*
X1801810Y1306560D01*
X1795000Y1301310D01*
X1787210Y1300000D01*
G01X1795000Y1321000D02*
X1806680Y1300000D01*
G01X1864000D02*
X1865950Y1317060D01*
X1868870Y1331490D01*
X1872770Y1344620D01*
X1877630Y1359050D01*
X1885420Y1378740D01*
X1846480D01*
G01X1779210Y2115000D02*
X1771420Y2116310D01*
X1764610Y2121560D01*
X1758760Y2129430D01*
X1754870Y2138620D01*
X1752920Y2149120D01*
Y2159620D01*
X1754870Y2170120D01*
X1758760Y2179310D01*
X1764610Y2187180D01*
X1771420Y2192430D01*
X1779210Y2193740D01*
X1787000Y2192430D01*
X1793810Y2187180D01*
X1799660Y2179310D01*
X1803550Y2170120D01*
X1805500Y2159620D01*
Y2149120D01*
X1803550Y2138620D01*
X1799660Y2129430D01*
X1793810Y2121560D01*
X1787000Y2116310D01*
X1779210Y2115000D01*
G01X1787000Y2136000D02*
X1798680Y2115000D01*
G01X1857950D02*
X1864770Y2116310D01*
X1872550Y2120250D01*
X1877420Y2126810D01*
X1879370Y2136000D01*
X1877420Y2145180D01*
X1871580Y2153060D01*
X1862820Y2157000D01*
X1853080D01*
X1847240Y2159620D01*
X1842370Y2166180D01*
X1840420Y2175370D01*
X1843350Y2184550D01*
X1850160Y2191120D01*
X1857950Y2193740D01*
X1865740Y2191120D01*
X1872550Y2184550D01*
X1875480Y2175370D01*
X1873530Y2166180D01*
X1868660Y2159620D01*
X1862820Y2157000D01*
X1853080D01*
X1844320Y2153060D01*
X1838480Y2145180D01*
X1836530Y2136000D01*
X1838480Y2126810D01*
X1843350Y2120250D01*
X1851130Y2116310D01*
X1857950Y2115000D01*
G01X1374740Y2425000D02*
Y2503740D01*
X1399080D01*
X1406870Y2499800D01*
X1411740Y2494550D01*
X1413680Y2484050D01*
X1411740Y2473560D01*
X1405890Y2467000D01*
X1399080Y2463060D01*
X1374740D01*
G01X1399080D02*
X1413680Y2425000D01*
G01X1472950D02*
X1479770Y2426310D01*
X1487550Y2430250D01*
X1492420Y2436810D01*
X1494370Y2446000D01*
X1492420Y2455180D01*
X1486580Y2463060D01*
X1477820Y2467000D01*
X1468080D01*
X1462240Y2469620D01*
X1457370Y2476180D01*
X1455420Y2485370D01*
X1458350Y2494550D01*
X1465160Y2501120D01*
X1472950Y2503740D01*
X1480740Y2501120D01*
X1487550Y2494550D01*
X1490480Y2485370D01*
X1488530Y2476180D01*
X1483660Y2469620D01*
X1477820Y2467000D01*
X1468080D01*
X1459320Y2463060D01*
X1453480Y2455180D01*
X1451530Y2446000D01*
X1453480Y2436810D01*
X1458350Y2430250D01*
X1466130Y2426310D01*
X1472950Y2425000D01*
G01X1269740Y2090000D02*
Y2168740D01*
X1294080D01*
X1301870Y2164800D01*
X1306740Y2159550D01*
X1308680Y2149050D01*
X1306740Y2138560D01*
X1300890Y2132000D01*
X1294080Y2128060D01*
X1269740D01*
G01X1294080D02*
X1308680Y2090000D01*
G01X1366000D02*
X1367950Y2107060D01*
X1370870Y2121490D01*
X1374770Y2134620D01*
X1379630Y2149050D01*
X1387420Y2168740D01*
X1348480D01*
G01X1604210Y2840000D02*
X1596420Y2841310D01*
X1589610Y2846560D01*
X1583760Y2854430D01*
X1579870Y2863620D01*
X1577920Y2874120D01*
Y2884620D01*
X1579870Y2895120D01*
X1583760Y2904310D01*
X1589610Y2912180D01*
X1596420Y2917430D01*
X1604210Y2918740D01*
X1612000Y2917430D01*
X1618810Y2912180D01*
X1624660Y2904310D01*
X1628550Y2895120D01*
X1630500Y2884620D01*
Y2874120D01*
X1628550Y2863620D01*
X1624660Y2854430D01*
X1618810Y2846560D01*
X1612000Y2841310D01*
X1604210Y2840000D01*
G01X1612000Y2861000D02*
X1623680Y2840000D01*
G01X1661530Y2855750D02*
X1667370Y2846560D01*
X1675160Y2841310D01*
X1683920Y2840000D01*
X1691710Y2841310D01*
X1699500Y2847870D01*
X1704370Y2855750D01*
X1705340Y2863620D01*
X1703400Y2872810D01*
X1696580Y2879370D01*
X1689770Y2882000D01*
X1681000D01*
G01X1689770D02*
X1695610Y2885930D01*
X1700480Y2892490D01*
X1702420Y2900370D01*
X1700480Y2908240D01*
X1695610Y2914800D01*
X1686840Y2918740D01*
X1678080Y2917430D01*
X1669320Y2912180D01*
G01X1879210Y3360000D02*
X1871420Y3361310D01*
X1864610Y3366560D01*
X1858760Y3374430D01*
X1854870Y3383620D01*
X1852920Y3394120D01*
Y3404620D01*
X1854870Y3415120D01*
X1858760Y3424310D01*
X1864610Y3432180D01*
X1871420Y3437430D01*
X1879210Y3438740D01*
X1887000Y3437430D01*
X1893810Y3432180D01*
X1899660Y3424310D01*
X1903550Y3415120D01*
X1905500Y3404620D01*
Y3394120D01*
X1903550Y3383620D01*
X1899660Y3374430D01*
X1893810Y3366560D01*
X1887000Y3361310D01*
X1879210Y3360000D01*
G01X1887000Y3381000D02*
X1898680Y3360000D01*
G01X1957950D02*
Y3438740D01*
X1946270Y3422990D01*
G01Y3360000D02*
X1969630D01*
G01X1469740Y3470000D02*
Y3548740D01*
X1494080D01*
X1501870Y3544800D01*
X1506740Y3539550D01*
X1508680Y3529050D01*
X1506740Y3518560D01*
X1500890Y3512000D01*
X1494080Y3508060D01*
X1469740D01*
G01X1494080D02*
X1508680Y3470000D01*
G01X1546530Y3485750D02*
X1552370Y3476560D01*
X1560160Y3471310D01*
X1568920Y3470000D01*
X1576710Y3471310D01*
X1584500Y3477870D01*
X1589370Y3485750D01*
X1590340Y3493620D01*
X1588400Y3502810D01*
X1581580Y3509370D01*
X1574770Y3512000D01*
X1566000D01*
G01X1574770D02*
X1580610Y3515930D01*
X1585480Y3522490D01*
X1587420Y3530370D01*
X1585480Y3538240D01*
X1580610Y3544800D01*
X1571840Y3548740D01*
X1563080Y3547430D01*
X1554320Y3542180D01*
G01X2319740Y645750D02*
X2324610Y637870D01*
X2330450Y632620D01*
X2337260Y630000D01*
X2345050Y632620D01*
X2350890Y637870D01*
X2356740Y645750D01*
X2358680Y656250D01*
Y708740D01*
G01X2399450Y695620D02*
X2405290Y703490D01*
X2412110Y707430D01*
X2419900Y708740D01*
X2429630Y706120D01*
X2436450Y699550D01*
X2438400Y691680D01*
X2437420Y683800D01*
X2433530Y677240D01*
X2414060Y664120D01*
X2405290Y654930D01*
X2399450Y641810D01*
X2397500Y630000D01*
X2438400D01*
G01X2279740Y1440000D02*
Y1518740D01*
X2304080D01*
X2311870Y1514800D01*
X2316740Y1509550D01*
X2318680Y1499050D01*
X2316740Y1488560D01*
X2310890Y1482000D01*
X2304080Y1478060D01*
X2279740D01*
G01X2304080D02*
X2318680Y1440000D01*
G01X2377950D02*
Y1518740D01*
X2366270Y1502990D01*
G01Y1440000D02*
X2389630D01*
G01X2456690D02*
Y1518740D01*
X2445010Y1502990D01*
G01Y1440000D02*
X2468370D01*
G01X2239740Y2175000D02*
Y2253740D01*
X2264080D01*
X2271870Y2249800D01*
X2276740Y2244550D01*
X2278680Y2234050D01*
X2276740Y2223560D01*
X2270890Y2217000D01*
X2264080Y2213060D01*
X2239740D01*
G01X2264080D02*
X2278680Y2175000D01*
G01X2337950D02*
Y2253740D01*
X2326270Y2237990D01*
G01Y2175000D02*
X2349630D01*
G01X2416690Y2253740D02*
X2408900Y2251120D01*
X2403060Y2244550D01*
X2399160Y2236680D01*
X2396240Y2226180D01*
X2395270Y2214370D01*
X2396240Y2202560D01*
X2399160Y2192060D01*
X2403060Y2184180D01*
X2408900Y2177620D01*
X2416690Y2175000D01*
X2424480Y2177620D01*
X2430320Y2184180D01*
X2434220Y2192060D01*
X2437140Y2202560D01*
X2438110Y2214370D01*
X2437140Y2226180D01*
X2434220Y2236680D01*
X2430320Y2244550D01*
X2424480Y2251120D01*
X2416690Y2253740D01*
G01X2214210Y2815000D02*
X2206420Y2816310D01*
X2199610Y2821560D01*
X2193760Y2829430D01*
X2189870Y2838620D01*
X2187920Y2849120D01*
Y2859620D01*
X2189870Y2870120D01*
X2193760Y2879310D01*
X2199610Y2887180D01*
X2206420Y2892430D01*
X2214210Y2893740D01*
X2222000Y2892430D01*
X2228810Y2887180D01*
X2234660Y2879310D01*
X2238550Y2870120D01*
X2240500Y2859620D01*
Y2849120D01*
X2238550Y2838620D01*
X2234660Y2829430D01*
X2228810Y2821560D01*
X2222000Y2816310D01*
X2214210Y2815000D01*
G01X2222000Y2836000D02*
X2233680Y2815000D01*
G01X2304630D02*
Y2893740D01*
X2268610Y2837310D01*
X2317290D01*
G01X2499210Y3650000D02*
X2491420Y3651310D01*
X2484610Y3656560D01*
X2478760Y3664430D01*
X2474870Y3673620D01*
X2472920Y3684120D01*
Y3694620D01*
X2474870Y3705120D01*
X2478760Y3714310D01*
X2484610Y3722180D01*
X2491420Y3727430D01*
X2499210Y3728740D01*
X2507000Y3727430D01*
X2513810Y3722180D01*
X2519660Y3714310D01*
X2523550Y3705120D01*
X2525500Y3694620D01*
Y3684120D01*
X2523550Y3673620D01*
X2519660Y3664430D01*
X2513810Y3656560D01*
X2507000Y3651310D01*
X2499210Y3650000D01*
G01X2507000Y3671000D02*
X2518680Y3650000D01*
G01X2559450Y3715620D02*
X2565290Y3723490D01*
X2572110Y3727430D01*
X2579900Y3728740D01*
X2589630Y3726120D01*
X2596450Y3719550D01*
X2598400Y3711680D01*
X2597420Y3703800D01*
X2593530Y3697240D01*
X2574060Y3684120D01*
X2565290Y3674930D01*
X2559450Y3661810D01*
X2557500Y3650000D01*
X2598400D01*
G01X2099740Y3770000D02*
Y3848740D01*
X2124080D01*
X2131870Y3844800D01*
X2136740Y3839550D01*
X2138680Y3829050D01*
X2136740Y3818560D01*
X2130890Y3812000D01*
X2124080Y3808060D01*
X2099740D01*
G01X2124080D02*
X2138680Y3770000D01*
G01X2176530Y3781810D02*
X2182370Y3775250D01*
X2189190Y3771310D01*
X2197950Y3770000D01*
X2206710Y3772620D01*
X2213530Y3777870D01*
X2218400Y3787060D01*
X2219370Y3797560D01*
X2217420Y3808060D01*
X2212550Y3814620D01*
X2205740Y3819870D01*
X2198920Y3821180D01*
X2192110Y3819870D01*
X2183350Y3814620D01*
X2186270Y3848740D01*
X2212550D01*
G01X3154740Y530000D02*
Y608740D01*
X3179080D01*
X3186870Y604800D01*
X3191740Y599550D01*
X3193680Y589050D01*
X3191740Y578560D01*
X3185890Y572000D01*
X3179080Y568060D01*
X3154740D01*
G01X3179080D02*
X3193680Y530000D01*
G01X3252950D02*
Y608740D01*
X3241270Y592990D01*
G01Y530000D02*
X3264630D01*
G01X3329740D02*
X3331690Y547060D01*
X3334610Y561490D01*
X3338510Y574620D01*
X3343370Y589050D01*
X3351160Y608740D01*
X3312220D01*
G01X3424740Y2270000D02*
Y2348740D01*
X3449080D01*
X3456870Y2344800D01*
X3461740Y2339550D01*
X3463680Y2329050D01*
X3461740Y2318560D01*
X3455890Y2312000D01*
X3449080Y2308060D01*
X3424740D01*
G01X3449080D02*
X3463680Y2270000D01*
G01X3522950D02*
Y2348740D01*
X3511270Y2332990D01*
G01Y2270000D02*
X3534630D01*
G01X3580270Y2281810D02*
X3586110Y2275250D01*
X3592930Y2271310D01*
X3601690Y2270000D01*
X3610450Y2272620D01*
X3617270Y2277870D01*
X3622140Y2287060D01*
X3623110Y2297560D01*
X3621160Y2308060D01*
X3616290Y2314620D01*
X3609480Y2319870D01*
X3602660Y2321180D01*
X3595850Y2319870D01*
X3587090Y2314620D01*
X3590010Y2348740D01*
X3616290D01*
G01X2919210Y2170000D02*
X2911420Y2171310D01*
X2904610Y2176560D01*
X2898760Y2184430D01*
X2894870Y2193620D01*
X2892920Y2204120D01*
Y2214620D01*
X2894870Y2225120D01*
X2898760Y2234310D01*
X2904610Y2242180D01*
X2911420Y2247430D01*
X2919210Y2248740D01*
X2927000Y2247430D01*
X2933810Y2242180D01*
X2939660Y2234310D01*
X2943550Y2225120D01*
X2945500Y2214620D01*
Y2204120D01*
X2943550Y2193620D01*
X2939660Y2184430D01*
X2933810Y2176560D01*
X2927000Y2171310D01*
X2919210Y2170000D01*
G01X2927000Y2191000D02*
X2938680Y2170000D01*
G01X2979450Y2202810D02*
X2986270Y2212000D01*
X2992110Y2217240D01*
X2999900Y2219870D01*
X3006710Y2217240D01*
X3011580Y2212000D01*
X3015480Y2204120D01*
X3016450Y2194930D01*
X3015480Y2187060D01*
X3011580Y2179180D01*
X3005740Y2172620D01*
X2998920Y2170000D01*
X2991130Y2172620D01*
X2984320Y2180500D01*
X2980420Y2192310D01*
X2979450Y2205430D01*
X2981400Y2222490D01*
X2984320Y2231680D01*
X2989190Y2240870D01*
X2996000Y2247430D01*
X3002820Y2248740D01*
X3009630Y2246120D01*
X3014500Y2239550D01*
G01X2797130Y3470000D02*
Y3550000D01*
X2813130D01*
X2818460Y3546000D01*
X2822460Y3536670D01*
X2823790Y3526000D01*
X2822460Y3515330D01*
X2819130Y3507330D01*
X2813130Y3503330D01*
X2797130D01*
G01X2852370Y3470000D02*
Y3550000D01*
X2869030D01*
X2874370Y3546000D01*
X2877700Y3540670D01*
X2879030Y3530000D01*
X2877700Y3519330D01*
X2873700Y3512670D01*
X2869030Y3508670D01*
X2852370D01*
G01X2869030D02*
X2879030Y3470000D01*
G01X2934270D02*
X2907610D01*
Y3550000D01*
X2934270D01*
G01X2923610Y3511330D02*
X2907610D01*
G01X2963510Y3470000D02*
Y3550000D01*
X2988850D01*
G01X2979510Y3511330D02*
X2963510D01*
G01X3014750Y3470000D02*
X3031420Y3550000D01*
X3048090Y3470000D01*
G01X3042090Y3498000D02*
X3020750D01*
G01X3101330Y3543330D02*
X3097330Y3547330D01*
X3092660Y3550000D01*
X3087330D01*
X3081330Y3546000D01*
X3076660Y3539330D01*
X3073330Y3531330D01*
X3070660Y3518000D01*
X3069990Y3506000D01*
X3071330Y3494000D01*
X3073330Y3486000D01*
X3077330Y3478000D01*
X3081990Y3472670D01*
X3086660Y3470000D01*
X3091330D01*
X3095990Y3472670D01*
X3099990Y3476670D01*
X3103330Y3482000D01*
G01X3183810Y3470000D02*
Y3550000D01*
X3200470D01*
X3205810Y3546000D01*
X3209140Y3540670D01*
X3210470Y3530000D01*
X3209140Y3519330D01*
X3205140Y3512670D01*
X3200470Y3508670D01*
X3183810D01*
G01X3200470D02*
X3210470Y3470000D01*
G01X3235710D02*
X3252380Y3550000D01*
X3269050Y3470000D01*
G01X3263050Y3498000D02*
X3241710D01*
G01X3294290Y3550000D02*
Y3470000D01*
X3320950D01*
G01X3348190Y3550000D02*
Y3492670D01*
X3350860Y3480660D01*
X3356190Y3472670D01*
X3362860Y3470000D01*
X3369530Y3472670D01*
X3374860Y3480660D01*
X3377530Y3492670D01*
Y3550000D01*
G01X3432770Y3543330D02*
X3428770Y3547330D01*
X3424100Y3550000D01*
X3418770D01*
X3412770Y3546000D01*
X3408100Y3539330D01*
X3404770Y3531330D01*
X3402100Y3518000D01*
X3401430Y3506000D01*
X3402770Y3494000D01*
X3404770Y3486000D01*
X3408770Y3478000D01*
X3413430Y3472670D01*
X3418100Y3470000D01*
X3422770D01*
X3427430Y3472670D01*
X3431430Y3476670D01*
X3434770Y3482000D01*
G01X3456670Y3470000D02*
X3473340Y3550000D01*
X3490010Y3470000D01*
G01X3484010Y3498000D02*
X3462670D01*
G01X3591820Y3470000D02*
Y3550000D01*
X3567150Y3492670D01*
X3600490D01*
G01X3624390Y3486000D02*
X3628390Y3476670D01*
X3633730Y3471330D01*
X3639730Y3470000D01*
X3645060Y3471330D01*
X3650390Y3478000D01*
X3653730Y3486000D01*
X3654390Y3494000D01*
X3653060Y3503330D01*
X3648390Y3510000D01*
X3643730Y3512670D01*
X3637730D01*
G01X3643730D02*
X3647730Y3516670D01*
X3651060Y3523330D01*
X3652390Y3531330D01*
X3651060Y3539330D01*
X3647730Y3546000D01*
X3641730Y3550000D01*
X3635730Y3548670D01*
X3629730Y3543330D01*
G01X3694300Y3470000D02*
Y3550000D01*
X3686300Y3534000D01*
G01Y3470000D02*
X3702300D01*
G01X3764210Y3543330D02*
X3760210Y3547330D01*
X3755540Y3550000D01*
X3750210D01*
X3744210Y3546000D01*
X3739540Y3539330D01*
X3736210Y3531330D01*
X3733540Y3518000D01*
X3732870Y3506000D01*
X3734210Y3494000D01*
X3736210Y3486000D01*
X3740210Y3478000D01*
X3744870Y3472670D01*
X3749540Y3470000D01*
X3754210D01*
X3758870Y3472670D01*
X3762870Y3476670D01*
X3766210Y3482000D01*
G01X3109990Y3230000D02*
X3083330D01*
Y3310000D01*
X3109990D01*
G01X3099330Y3271330D02*
X3083330D01*
G01X3151900Y3310000D02*
Y3230000D01*
G01X3136570Y3310000D02*
X3167230D01*
G01X3207140D02*
Y3230000D01*
G01X3191810Y3310000D02*
X3222470D01*
G01X3254380D02*
X3270380D01*
G01X3262380D02*
Y3230000D01*
G01X3254380D02*
X3270380D01*
G01X3358190Y3310000D02*
Y3252670D01*
X3360860Y3240660D01*
X3366190Y3232670D01*
X3372860Y3230000D01*
X3379530Y3232670D01*
X3384860Y3240660D01*
X3387530Y3252670D01*
Y3310000D01*
G01X3414770Y3230000D02*
Y3310000D01*
X3430770D01*
X3436100Y3306000D01*
X3440100Y3296670D01*
X3441430Y3286000D01*
X3440100Y3275330D01*
X3436770Y3267330D01*
X3430770Y3263330D01*
X3414770D01*
G01X3488670Y3272670D02*
X3491340Y3276670D01*
X3493340Y3283330D01*
X3494670Y3292670D01*
X3493340Y3300670D01*
X3490670Y3306000D01*
X3486010Y3310000D01*
X3468010D01*
Y3230000D01*
X3490010D01*
X3494670Y3235330D01*
X3497340Y3243330D01*
X3498670Y3252670D01*
X3497340Y3262000D01*
X3493340Y3270000D01*
X3488670Y3272670D01*
X3468010D01*
G01X2771890Y3350000D02*
Y3430000D01*
X2787890D01*
X2793220Y3426000D01*
X2797220Y3416670D01*
X2798550Y3406000D01*
X2797220Y3395330D01*
X2793890Y3387330D01*
X2787890Y3383330D01*
X2771890D01*
G01X2825790Y3350000D02*
Y3430000D01*
X2839130D01*
X2844460Y3426000D01*
X2848460Y3420670D01*
X2851790Y3412670D01*
X2854460Y3403330D01*
X2855130Y3390000D01*
X2854460Y3376670D01*
X2851790Y3367330D01*
X2848460Y3359330D01*
X2844460Y3354000D01*
X2839130Y3350000D01*
X2825790D01*
G01X2910370Y3423330D02*
X2906370Y3427330D01*
X2901700Y3430000D01*
X2896370D01*
X2890370Y3426000D01*
X2885700Y3419330D01*
X2882370Y3411330D01*
X2879700Y3398000D01*
X2879030Y3386000D01*
X2880370Y3374000D01*
X2882370Y3366000D01*
X2886370Y3358000D01*
X2891030Y3352670D01*
X2895700Y3350000D01*
X2900370D01*
X2905030Y3352670D01*
X2909030Y3356670D01*
X2912370Y3362000D01*
G01X2964270Y3350000D02*
X2937610D01*
Y3430000D01*
X2964270D01*
G01X2953610Y3391330D02*
X2937610D01*
G01X3006180Y3350000D02*
Y3430000D01*
X2998180Y3414000D01*
G01Y3350000D02*
X3014180D01*
G01X3102660Y3360660D02*
X3107990Y3354000D01*
X3113990Y3350000D01*
X3119330D01*
X3124660Y3354000D01*
X3128660Y3360660D01*
X3130660Y3370000D01*
X3129330Y3379330D01*
X3125990Y3387330D01*
X3119990Y3392670D01*
X3111990Y3395330D01*
X3107330Y3400670D01*
X3105330Y3410000D01*
X3106660Y3419330D01*
X3109990Y3426000D01*
X3114660Y3430000D01*
X3119330D01*
X3123990Y3427330D01*
X3127990Y3420670D01*
G01X3185230Y3350000D02*
X3158570D01*
Y3430000D01*
X3185230D01*
G01X3174570Y3391330D02*
X3158570D01*
G01X3213810Y3350000D02*
Y3430000D01*
X3230470D01*
X3235810Y3426000D01*
X3239140Y3420670D01*
X3240470Y3410000D01*
X3239140Y3399330D01*
X3235140Y3392670D01*
X3230470Y3388670D01*
X3213810D01*
G01X3230470D02*
X3240470Y3350000D01*
G01X3268380Y3360660D02*
X3273710Y3354000D01*
X3279710Y3350000D01*
X3285050D01*
X3290380Y3354000D01*
X3294380Y3360660D01*
X3296380Y3370000D01*
X3295050Y3379330D01*
X3291710Y3387330D01*
X3285710Y3392670D01*
X3277710Y3395330D01*
X3273050Y3400670D01*
X3271050Y3410000D01*
X3272380Y3419330D01*
X3275710Y3426000D01*
X3280380Y3430000D01*
X3285050D01*
X3289710Y3427330D01*
X3293710Y3420670D01*
G01X3380190Y3416670D02*
X3384190Y3424670D01*
X3388860Y3428670D01*
X3394190Y3430000D01*
X3400860Y3427330D01*
X3405530Y3420670D01*
X3406860Y3412670D01*
X3406190Y3404660D01*
X3403530Y3398000D01*
X3390190Y3384670D01*
X3384190Y3375330D01*
X3380190Y3362000D01*
X3378860Y3350000D01*
X3406860D01*
G01X3448100Y3430000D02*
X3442770Y3427330D01*
X3438770Y3420670D01*
X3436100Y3412670D01*
X3434100Y3402000D01*
X3433430Y3390000D01*
X3434100Y3378000D01*
X3436100Y3367330D01*
X3438770Y3359330D01*
X3442770Y3352670D01*
X3448100Y3350000D01*
X3453430Y3352670D01*
X3457430Y3359330D01*
X3460100Y3367330D01*
X3462100Y3378000D01*
X3462770Y3390000D01*
X3462100Y3402000D01*
X3460100Y3412670D01*
X3457430Y3420670D01*
X3453430Y3427330D01*
X3448100Y3430000D01*
G01X3490670Y3416670D02*
X3494670Y3424670D01*
X3499340Y3428670D01*
X3504670Y3430000D01*
X3511340Y3427330D01*
X3516010Y3420670D01*
X3517340Y3412670D01*
X3516670Y3404660D01*
X3514010Y3398000D01*
X3500670Y3384670D01*
X3494670Y3375330D01*
X3490670Y3362000D01*
X3489340Y3350000D01*
X3517340D01*
G01X3543910Y3366000D02*
X3547910Y3356670D01*
X3553250Y3351330D01*
X3559250Y3350000D01*
X3564580Y3351330D01*
X3569910Y3358000D01*
X3573250Y3366000D01*
X3573910Y3374000D01*
X3572580Y3383330D01*
X3567910Y3390000D01*
X3563250Y3392670D01*
X3557250D01*
G01X3563250D02*
X3567250Y3396670D01*
X3570580Y3403330D01*
X3571910Y3411330D01*
X3570580Y3419330D01*
X3567250Y3426000D01*
X3561250Y3430000D01*
X3555250Y3428670D01*
X3549250Y3423330D01*
G01X3605150Y3376670D02*
X3622490D01*
G01X3656390Y3416670D02*
X3660390Y3424670D01*
X3665060Y3428670D01*
X3670390Y3430000D01*
X3677060Y3427330D01*
X3681730Y3420670D01*
X3683060Y3412670D01*
X3682390Y3404660D01*
X3679730Y3398000D01*
X3666390Y3384670D01*
X3660390Y3375330D01*
X3656390Y3362000D01*
X3655060Y3350000D01*
X3683060D01*
G01X3724300Y3430000D02*
X3718970Y3427330D01*
X3714970Y3420670D01*
X3712300Y3412670D01*
X3710300Y3402000D01*
X3709630Y3390000D01*
X3710300Y3378000D01*
X3712300Y3367330D01*
X3714970Y3359330D01*
X3718970Y3352670D01*
X3724300Y3350000D01*
X3729630Y3352670D01*
X3733630Y3359330D01*
X3736300Y3367330D01*
X3738300Y3378000D01*
X3738970Y3390000D01*
X3738300Y3402000D01*
X3736300Y3412670D01*
X3733630Y3420670D01*
X3729630Y3427330D01*
X3724300Y3430000D01*
G01X3766870Y3416670D02*
X3770870Y3424670D01*
X3775540Y3428670D01*
X3780870Y3430000D01*
X3787540Y3427330D01*
X3792210Y3420670D01*
X3793540Y3412670D01*
X3792870Y3404660D01*
X3790210Y3398000D01*
X3776870Y3384670D01*
X3770870Y3375330D01*
X3766870Y3362000D01*
X3765540Y3350000D01*
X3793540D01*
G01X3842780D02*
Y3430000D01*
X3818110Y3372670D01*
X3851450D01*
G01X2861790Y3080000D02*
Y3158740D01*
X2886130D01*
X2893920Y3154800D01*
X2898790Y3149550D01*
X2900730Y3139050D01*
X2898790Y3128560D01*
X2892940Y3122000D01*
X2886130Y3118060D01*
X2861790D01*
G01X2886130D02*
X2900730Y3080000D01*
G01X2960000D02*
Y3158740D01*
X2948320Y3142990D01*
G01Y3080000D02*
X2971680D01*
G01X3050420D02*
Y3158740D01*
X3014400Y3102310D01*
X3063080D01*
G01X3529740Y1180000D02*
Y1258740D01*
X3554080D01*
X3561870Y1254800D01*
X3566740Y1249550D01*
X3568680Y1239050D01*
X3566740Y1228560D01*
X3560890Y1222000D01*
X3554080Y1218060D01*
X3529740D01*
G01X3554080D02*
X3568680Y1180000D01*
G01X3627950D02*
Y1258740D01*
X3616270Y1242990D01*
G01Y1180000D02*
X3639630D01*
G01X3690140Y1189180D02*
X3696950Y1182620D01*
X3704740Y1180000D01*
X3712530Y1182620D01*
X3719350Y1190500D01*
X3724220Y1202310D01*
X3726160Y1214120D01*
Y1228560D01*
X3724220Y1240370D01*
X3719350Y1250870D01*
X3713510Y1256120D01*
X3706690Y1258740D01*
X3698900Y1256120D01*
X3693060Y1250870D01*
X3689160Y1242990D01*
X3687220Y1232490D01*
X3689160Y1223310D01*
X3694030Y1214120D01*
X3699870Y1208870D01*
X3706690Y1207560D01*
X3714480Y1210180D01*
X3720320Y1216740D01*
X3726160Y1228560D01*
G01X3594740Y760000D02*
Y838740D01*
X3619080D01*
X3626870Y834800D01*
X3631740Y829550D01*
X3633680Y819050D01*
X3631740Y808560D01*
X3625890Y802000D01*
X3619080Y798060D01*
X3594740D01*
G01X3619080D02*
X3633680Y760000D01*
G01X3692950D02*
Y838740D01*
X3681270Y822990D01*
G01Y760000D02*
X3704630D01*
G01X3771690D02*
X3778510Y761310D01*
X3786290Y765250D01*
X3791160Y771810D01*
X3793110Y781000D01*
X3791160Y790180D01*
X3785320Y798060D01*
X3776560Y802000D01*
X3766820D01*
X3760980Y804620D01*
X3756110Y811180D01*
X3754160Y820370D01*
X3757090Y829550D01*
X3763900Y836120D01*
X3771690Y838740D01*
X3779480Y836120D01*
X3786290Y829550D01*
X3789220Y820370D01*
X3787270Y811180D01*
X3782400Y804620D01*
X3776560Y802000D01*
X3766820D01*
X3758060Y798060D01*
X3752220Y790180D01*
X3750270Y781000D01*
X3752220Y771810D01*
X3757090Y765250D01*
X3764870Y761310D01*
X3771690Y760000D01*
G01X3569740Y1745000D02*
Y1823740D01*
X3594080D01*
X3601870Y1819800D01*
X3606740Y1814550D01*
X3608680Y1804050D01*
X3606740Y1793560D01*
X3600890Y1787000D01*
X3594080Y1783060D01*
X3569740D01*
G01X3594080D02*
X3608680Y1745000D01*
G01X3667950D02*
Y1823740D01*
X3656270Y1807990D01*
G01Y1745000D02*
X3679630D01*
G01X3728190Y1777810D02*
X3735010Y1787000D01*
X3740850Y1792240D01*
X3748640Y1794870D01*
X3755450Y1792240D01*
X3760320Y1787000D01*
X3764220Y1779120D01*
X3765190Y1769930D01*
X3764220Y1762060D01*
X3760320Y1754180D01*
X3754480Y1747620D01*
X3747660Y1745000D01*
X3739870Y1747620D01*
X3733060Y1755500D01*
X3729160Y1767310D01*
X3728190Y1780430D01*
X3730140Y1797490D01*
X3733060Y1806680D01*
X3737930Y1815870D01*
X3744740Y1822430D01*
X3751560Y1823740D01*
X3758370Y1821120D01*
X3763240Y1814550D01*
G01X3509740Y2730000D02*
Y2808740D01*
X3534080D01*
X3541870Y2804800D01*
X3546740Y2799550D01*
X3548680Y2789050D01*
X3546740Y2778560D01*
X3540890Y2772000D01*
X3534080Y2768060D01*
X3509740D01*
G01X3534080D02*
X3548680Y2730000D01*
G01X3607950D02*
Y2808740D01*
X3596270Y2792990D01*
G01Y2730000D02*
X3619630D01*
G01X3668190Y2795620D02*
X3674030Y2803490D01*
X3680850Y2807430D01*
X3688640Y2808740D01*
X3698370Y2806120D01*
X3705190Y2799550D01*
X3707140Y2791680D01*
X3706160Y2783800D01*
X3702270Y2777240D01*
X3682800Y2764120D01*
X3674030Y2754930D01*
X3668190Y2741810D01*
X3666240Y2730000D01*
X3707140D01*
G01X3539740Y3100000D02*
Y3178740D01*
X3564080D01*
X3571870Y3174800D01*
X3576740Y3169550D01*
X3578680Y3159050D01*
X3576740Y3148560D01*
X3570890Y3142000D01*
X3564080Y3138060D01*
X3539740D01*
G01X3564080D02*
X3578680Y3100000D01*
G01X3637950D02*
Y3178740D01*
X3626270Y3162990D01*
G01Y3100000D02*
X3649630D01*
G01X3695270Y3115750D02*
X3701110Y3106560D01*
X3708900Y3101310D01*
X3717660Y3100000D01*
X3725450Y3101310D01*
X3733240Y3107870D01*
X3738110Y3115750D01*
X3739080Y3123620D01*
X3737140Y3132810D01*
X3730320Y3139370D01*
X3723510Y3142000D01*
X3714740D01*
G01X3723510D02*
X3729350Y3145930D01*
X3734220Y3152490D01*
X3736160Y3160370D01*
X3734220Y3168240D01*
X3729350Y3174800D01*
X3720580Y3178740D01*
X3711820Y3177430D01*
X3703060Y3172180D01*
G01X904280Y807280D02*
X998260D01*
Y903800D01*
G01X800140Y949520D02*
X891580D01*
G01X787440Y807280D02*
X693460D01*
Y903800D01*
G01X1160480Y2630140D02*
Y2721580D01*
G01X1462720Y1054280D02*
Y1148260D01*
X1366200D01*
G01X1320480Y950140D02*
Y1041580D01*
G01X1462720Y937440D02*
Y843460D01*
X1366200D01*
G01X1884280Y1037280D02*
X1978260D01*
Y1133800D01*
G01X1780140Y1179520D02*
X1871580D01*
G01X1767440Y1037280D02*
X1673460D01*
Y1133800D01*
G01X1770480Y1880140D02*
Y1971580D01*
G01X1912720Y1867440D02*
Y1773460D01*
X1816200D01*
G01X1912720Y1984280D02*
Y2078260D01*
X1816200D01*
G01X1302720Y2734280D02*
Y2828260D01*
X1206200D01*
G01X1302720Y2617440D02*
Y2523460D01*
X1206200D01*
G01X1725720Y2812720D02*
X1631740D01*
Y2716200D01*
G01X1829860Y2670480D02*
X1738420D01*
G01X1842560Y2812720D02*
X1936540D01*
Y2716200D01*
G01X2027440Y3087280D02*
X1933460D01*
Y3183800D01*
G01X2362720Y2704280D02*
Y2798260D01*
X2266200D01*
G01X2220480Y2600140D02*
Y2691580D01*
G01X2362720Y2587440D02*
Y2493460D01*
X2266200D01*
G01X2467280Y3405720D02*
Y3311740D01*
X2563800D01*
G01X2609520Y3509860D02*
Y3418420D01*
G01X2144280Y3087280D02*
X2238260D01*
Y3183800D01*
G01X2040140Y3229520D02*
X2131580D01*
G01X2467280Y3522560D02*
Y3616540D01*
X2563800D01*
G54D12*
G01X460810Y938400D02*
X351590D01*
G01D02*
X330000Y916810D01*
G01D02*
X308410Y938400D01*
G01D02*
X199190D01*
G01D02*
Y1339720D01*
G01D02*
X460810D01*
G01Y1708400D02*
X351590D01*
G01D02*
X330000Y1686810D01*
G01D02*
X308410Y1708400D01*
G01D02*
X199190D01*
G01D02*
Y2109720D01*
G01D02*
X460810D01*
G01X159500Y2422130D02*
X540500D01*
G01X159500Y3298430D02*
Y2422130D01*
G01X540500Y3298430D02*
X159500D01*
G01X659880Y3564750D02*
X253480D01*
G01D02*
Y3755250D01*
G01D02*
X659880D01*
G01X460810Y1339720D02*
Y938400D01*
G01Y2109720D02*
Y1708400D01*
G01X1029880Y1814750D02*
X623480D01*
G01D02*
Y2005250D01*
G01X1029880D02*
Y1814750D01*
G01X1529880Y1884750D02*
X1123480D01*
G01D02*
Y2075250D01*
G01X1039880Y1424750D02*
X633480D01*
G01D02*
Y1615250D01*
G01D02*
X1039880D01*
G01D02*
Y1424750D01*
G01X623480Y2005250D02*
X1029880D01*
G01X1539880Y2214750D02*
X1133480D01*
G01D02*
Y2405250D01*
G01D02*
X1539880D01*
G01X1123480Y2075250D02*
X1529880D01*
G01X885250Y2799880D02*
Y2393480D01*
G01D02*
X694750D01*
G01D02*
Y2799880D01*
G01X540500Y2422130D02*
Y3298430D01*
G01X694750Y2799880D02*
X885250D01*
G01X1265250Y3033480D02*
X1074750D01*
G01D02*
Y3439880D01*
G01D02*
X1265250D01*
G01X895250D02*
Y3033480D01*
G01D02*
X704750D01*
G01D02*
Y3439880D01*
G01D02*
X895250D01*
G01X930120Y3755250D02*
X1336520D01*
G01Y3564750D02*
X930120D01*
G01D02*
Y3755250D01*
G01X659880D02*
Y3564750D01*
G01X1942130Y600500D02*
Y219500D01*
G01D02*
X2818430D01*
G01Y600500D02*
X1942130D01*
G01X1529880Y2075250D02*
Y1884750D01*
G01X1539880Y2405250D02*
Y2214750D01*
G01X1625250Y3439880D02*
Y3033480D01*
G01D02*
X1434750D01*
G01D02*
Y3439880D01*
G01D02*
X1625250D01*
G01X1265250D02*
Y3033480D01*
G01X1950120Y3745250D02*
X2356520D01*
G01Y3554750D02*
X1950120D01*
G01D02*
Y3745250D01*
G01X1336520Y3755250D02*
Y3564750D01*
G01X2274750Y1010120D02*
Y1416520D01*
G01X2465250D02*
Y1010120D01*
G01D02*
X2274750D01*
G01X2616120Y1029400D02*
Y1816800D01*
G01X2274750Y1416520D02*
X2465250D01*
G01X2244750Y1730120D02*
Y2136520D01*
G01X2435250D02*
Y1730120D01*
G01D02*
X2244750D01*
G01X2616120Y1816800D02*
X3286680D01*
G01X2244750Y2136520D02*
X2435250D01*
G01X2356520Y3745250D02*
Y3554750D01*
G01X3446520Y505250D02*
Y314750D01*
G01D02*
X3040120D01*
G01D02*
Y505250D01*
G01X2818430Y219500D02*
Y600500D01*
G01X3799880Y964750D02*
X3393480D01*
G01D02*
Y1155250D01*
G01D02*
X3799880D01*
G01X3040120Y505250D02*
X3446520D01*
G01X3286680Y1816800D02*
Y1029400D01*
G01X3390120Y1705250D02*
X3796520D01*
G01Y1514750D02*
X3390120D01*
G01D02*
Y1705250D01*
G01X3380120Y2235250D02*
X3786520D01*
G01Y2044750D02*
X3380120D01*
G01D02*
Y2235250D01*
G01X3789880Y2504750D02*
X3383480D01*
G01D02*
Y2695250D01*
G01D02*
X3789880D01*
G01Y2874750D02*
X3383480D01*
G01D02*
Y3065250D01*
G01D02*
X3789880D01*
G01X3604750Y310120D02*
Y716520D01*
G01X3795250D02*
Y310120D01*
G01D02*
X3604750D01*
G01X3799880Y1155250D02*
Y964750D01*
G01X3604750Y716520D02*
X3795250D01*
G01X3796520Y1705250D02*
Y1514750D01*
G01X3786520Y2235250D02*
Y2044750D01*
G01X3789880Y2695250D02*
Y2504750D01*
G01Y3065250D02*
Y2874750D01*
M02*
